<svg width="12" height="12" viewBox="0 0 12 12" fill="none" xmlns="http://www.w3.org/2000/svg">
<path d="M11.9943 9.47032C12.0197 9.66526 11.9603 9.83475 11.8164 9.9788L10.1268 11.6567C10.0506 11.7414 9.95114 11.8135 9.82834 11.8728C9.70554 11.9321 9.58487 11.9703 9.46635 11.9872C9.45788 11.9872 9.43241 11.9894 9.39004 11.9936C9.34776 11.9978 9.29271 12 9.22496 12C9.06401 12 8.80356 11.9725 8.44363 11.9174C8.08369 11.8622 7.64333 11.7266 7.12252 11.5106C6.60159 11.2945 6.0109 10.9703 5.35033 10.5381C4.68977 10.106 3.98682 9.51272 3.24154 8.75846C2.64871 8.17371 2.15751 7.61439 1.76793 7.08052C1.37836 6.5466 1.065 6.05296 0.827869 5.59957C0.590715 5.14618 0.412866 4.73516 0.294299 4.36652C0.175733 3.99787 0.0952767 3.68008 0.0529315 3.41313C0.0105863 3.14618 -0.00635178 2.93644 0.00211726 2.78389C0.0105863 2.63135 0.0148208 2.54661 0.0148208 2.52966C0.0317589 2.41101 0.0698696 2.29025 0.129153 2.16737C0.188436 2.04449 0.260423 1.94491 0.345113 1.86864L2.03469 0.177966C2.15325 0.0593219 2.28876 0 2.4412 0C2.5513 0 2.64869 0.0317796 2.73338 0.0953388C2.81807 0.158898 2.89006 0.237288 2.94934 0.330508L4.30862 2.91101C4.38484 3.0466 4.40602 3.19491 4.37214 3.35593C4.33826 3.51694 4.26628 3.65254 4.15618 3.76271L3.53371 4.38559C3.51677 4.40253 3.50195 4.43008 3.48924 4.46821C3.47654 4.50635 3.47019 4.53813 3.47019 4.56355C3.50406 4.74152 3.58028 4.94491 3.69885 5.17372C3.80048 5.37711 3.95716 5.62499 4.16888 5.91736C4.38061 6.20974 4.68126 6.54658 5.07084 6.92793C5.45194 7.3178 5.7907 7.62073 6.08712 7.83687C6.38347 8.05289 6.63128 8.21185 6.8303 8.31355C7.02932 8.41524 7.18176 8.47668 7.28761 8.4978L7.44636 8.5296C7.4633 8.5296 7.49088 8.52323 7.52895 8.51054C7.56706 8.4978 7.59459 8.483 7.61155 8.46603L8.33563 7.72874C8.48815 7.59317 8.66592 7.52537 8.8692 7.52537C9.01321 7.52537 9.12748 7.55077 9.21217 7.60164H9.22486L11.6766 9.05079C11.8545 9.16104 11.9604 9.30083 11.9943 9.47032Z" fill="#52566D"/>
</svg>
