<svg width="146" height="18" viewBox="0 0 146 18" fill="none" xmlns="http://www.w3.org/2000/svg">
<path d="M2.51473 9.02557C2.51473 12.2131 2.84345 14.1136 3.5009 14.7273C4.15834 15.3409 6.17177 15.6477 9.54117 15.6477C12.6805 15.6477 14.5953 15.4688 15.2856 15.1108C16.091 14.6847 16.4937 13.5341 16.4937 11.6591H19.0084C19.0084 14.4375 18.4496 16.1932 17.3319 16.9261C16.2307 17.642 13.6338 18 9.54117 18C5.38283 18 2.75305 17.4886 1.65183 16.4659C0.55061 15.4432 0 12.9631 0 9.02557C0 5.07102 0.542392 2.58239 1.62718 1.55966C2.7284 0.519886 5.3664 0 9.54117 0C13.6502 0 16.2553 0.357955 17.3566 1.07386C18.4578 1.78977 19.0084 3.54545 19.0084 6.34091H16.4937C16.4937 4.46591 16.1238 3.34091 15.3842 2.96591C14.6446 2.57386 12.6969 2.37784 9.54117 2.37784C6.15533 2.37784 4.13369 2.68466 3.47624 3.2983C2.83523 3.89489 2.51473 5.80398 2.51473 9.02557Z" fill="white"/>
<path d="M25.8647 12.6563C25.8647 14.0199 26.2263 14.8636 26.9495 15.1875C27.6892 15.4943 29.6368 15.6477 32.7926 15.6477C35.9812 15.6477 37.9371 15.4943 38.6603 15.1875C39.3835 14.8636 39.7451 14.0199 39.7451 12.6563V0.255682H42.2598V12.6563C42.2598 15.0597 41.7996 16.5341 40.8792 17.0795C39.8601 17.6932 37.1646 18 32.7926 18C28.437 18 25.7743 17.7102 24.8046 17.1307C23.8349 16.5511 23.35 15.0597 23.35 12.6563V0.255682H25.8647V12.6563Z" fill="white"/>
<path d="M64.6955 12.6307C64.6955 14.3523 64.2353 15.6392 63.3148 16.4915C62.4109 17.3267 61.0795 17.7443 59.3209 17.7443H45.7857V0.255682H58.7292C60.455 0.255682 61.7781 0.681818 62.6985 1.53409C63.6189 2.38636 64.0791 3.61364 64.0791 5.21591C64.0791 6.97159 63.4463 8.09659 62.1808 8.59091C62.9039 8.84659 63.4792 9.27273 63.9065 9.86932C64.4325 10.6023 64.6955 11.5227 64.6955 12.6307ZM61.5891 5.21591C61.5891 4.41477 61.3918 3.80114 60.9974 3.375C60.5207 2.86364 59.7646 2.60795 58.7292 2.60795H48.3004V7.56818H58.7292C59.7975 7.56818 60.5371 7.38068 60.948 7.00568C61.3754 6.61364 61.5891 6.01705 61.5891 5.21591ZM48.3004 9.92046V15.392H59.2962C60.2495 15.392 60.9645 15.1449 61.4411 14.6506C61.9342 14.1392 62.1808 13.4744 62.1808 12.6563C62.1808 11.8551 61.9342 11.1989 61.4411 10.6875C60.9481 10.1761 60.2331 9.92046 59.2962 9.92046H48.3004Z" fill="white"/>
<path d="M71.7934 17.7443H69.2787V0.255682H71.7934V17.7443Z" fill="white"/>
<path d="M75.8823 0.255682H93.5101V2.60795H85.9659V17.7443H83.4512V2.60795H75.8823V0.255682Z" fill="white"/>
<path d="M99.0087 12.6563C99.0087 14.0199 99.3703 14.8636 100.094 15.1875C100.833 15.4943 102.781 15.6477 105.937 15.6477C109.125 15.6477 111.081 15.4943 111.804 15.1875C112.527 14.8636 112.889 14.0199 112.889 12.6563V0.255682H115.404V12.6563C115.404 15.0597 114.944 16.5341 114.023 17.0795C113.004 17.6932 110.309 18 105.937 18C101.581 18 98.9183 17.7102 97.9486 17.1307C96.9789 16.5511 96.494 15.0597 96.494 12.6563V0.255682H99.0087V12.6563Z" fill="white"/>
<path d="M124.058 0.255682L132.785 14.625L141.513 0.255682H146V17.7443H143.51V2.60795H143.017L133.574 17.7443H131.996L122.554 2.60795H122.085V17.7443H119.571V0.255682H124.058Z" fill="white"/>
</svg>
