<svg width="205" height="43" viewBox="0 0 205 43" fill="none" xmlns="http://www.w3.org/2000/svg">
<path d="M3.5237 12.2461C3.5237 16.4931 3.98431 19.0254 4.90554 19.8429C5.82677 20.6605 8.64802 21.0693 13.3693 21.0693C17.7682 21.0693 20.4513 20.8309 21.4185 20.3539C22.547 19.7862 23.1113 18.2532 23.1113 15.755H26.635C26.635 19.4569 25.852 21.7961 24.2859 22.7727C22.7428 23.7265 19.104 24.2034 13.3693 24.2034C7.54255 24.2034 3.85764 23.5221 2.31458 22.1595C0.771528 20.7968 0 17.4924 0 12.2461C0 6.97721 0.760013 3.66141 2.28004 2.29875C3.82309 0.913386 7.51952 0.220703 13.3693 0.220703C19.127 0.220703 22.7774 0.697632 24.3204 1.65149C25.8635 2.60535 26.635 4.94458 26.635 8.66917H23.1113C23.1113 6.17097 22.5931 4.67204 21.5567 4.1724C20.5203 3.65005 17.7912 3.38888 13.3693 3.38888C8.62499 3.38888 5.79222 3.79767 4.87099 4.61527C3.97279 5.41015 3.5237 7.95377 3.5237 12.2461Z" fill="white"/>
<path d="M36.2423 17.0836C36.2423 18.9004 36.749 20.0246 37.7623 20.4561C38.7987 20.8649 41.5278 21.0693 45.9497 21.0693C50.4177 21.0693 53.1583 20.8649 54.1717 20.4561C55.185 20.0246 55.6917 18.9004 55.6917 17.0836V0.561367H59.2154V17.0836C59.2154 20.2858 58.5706 22.2503 57.2808 22.9771C55.8529 23.7946 52.0759 24.2034 45.9497 24.2034C39.8466 24.2034 36.1156 23.8174 34.7568 23.0452C33.398 22.273 32.7186 20.2858 32.7186 17.0836V0.561367H36.2423V17.0836Z" fill="white"/>
<path d="M90.6528 17.0495C90.6528 19.3433 90.008 21.058 88.7183 22.1935C87.4516 23.3064 85.5861 23.8628 83.1218 23.8628H64.156V0.561367H82.2927C84.7109 0.561367 86.5649 1.12914 87.8546 2.26469C89.1443 3.40023 89.7892 5.03542 89.7892 7.17025C89.7892 9.50947 88.9025 11.0084 87.1292 11.667C88.1425 12.0077 88.9486 12.5754 89.5474 13.3703C90.2844 14.3469 90.6528 15.5733 90.6528 17.0495ZM86.3 7.17025C86.3 6.10283 86.0237 5.28524 85.4709 4.71747C84.803 4.03614 83.7436 3.69548 82.2927 3.69548H67.6797V10.3044H82.2927C83.7897 10.3044 84.8261 10.0545 85.4018 9.5549C86.0006 9.03254 86.3 8.23766 86.3 7.17025ZM67.6797 13.4385V20.7287H83.0873C84.423 20.7287 85.4249 20.3994 86.0928 19.7407C86.7837 19.0594 87.1292 18.1737 87.1292 17.0836C87.1292 16.0162 86.7837 15.1418 86.0928 14.4605C85.4019 13.7791 84.4 13.4385 83.0873 13.4385H67.6797Z" fill="white"/>
<path d="M100.599 23.8628H97.0749V0.561367H100.599V23.8628Z" fill="white"/>
<path d="M106.328 0.561367H131.029V3.69548H120.457V23.8628H116.934V3.69548H106.328V0.561367Z" fill="white"/>
<path d="M138.733 17.0836C138.733 18.9004 139.24 20.0246 140.253 20.4561C141.29 20.8649 144.019 21.0693 148.441 21.0693C152.909 21.0693 155.649 20.8649 156.663 20.4561C157.676 20.0246 158.183 18.9004 158.183 17.0836V0.561367H161.706V17.0836C161.706 20.2858 161.062 22.2503 159.772 22.9771C158.344 23.7946 154.567 24.2034 148.441 24.2034C142.338 24.2034 138.607 23.8174 137.248 23.0452C135.889 22.273 135.21 20.2858 135.21 17.0836V0.561367H138.733V17.0836Z" fill="white"/>
<path d="M173.833 0.561367L186.062 19.7067L198.291 0.561367H204.579V23.8628H201.089V3.69548H200.399L187.167 23.8628H184.956L171.725 3.69548H171.069V23.8628H167.545V0.561367H173.833Z" fill="white"/>
<path d="M59.5411 40.1863C59.5411 40.9827 59.3172 41.5781 58.8694 41.9724C58.4295 42.3588 57.7818 42.552 56.9261 42.552H50.3408V34.4612H56.6383C57.4779 34.4612 58.1217 34.6584 58.5695 35.0526C59.0173 35.4469 59.2412 36.0147 59.2412 36.756C59.2412 37.5682 58.9333 38.0887 58.3176 38.3173C58.6694 38.4356 58.9493 38.6328 59.1572 38.9088C59.4131 39.2479 59.5411 39.6737 59.5411 40.1863ZM58.0297 36.756C58.0297 36.3853 57.9337 36.1014 57.7418 35.9043C57.5099 35.6677 57.1421 35.5494 56.6383 35.5494H51.5643V37.8442H56.6383C57.1581 37.8442 57.5179 37.7575 57.7178 37.584C57.9257 37.4026 58.0297 37.1266 58.0297 36.756ZM51.5643 38.9324V41.4637H56.9142C57.378 41.4637 57.7258 41.3494 57.9577 41.1207C58.1976 40.8841 58.3176 40.5766 58.3176 40.1981C58.3176 39.8275 58.1976 39.5239 57.9577 39.2873C57.7178 39.0507 57.37 38.9324 56.9142 38.9324H51.5643Z" fill="white"/>
<path d="M61.4351 34.4612H69.2919V35.5494H62.6586V37.9033H69.064V38.9916H62.6586V41.4637H69.2919V42.552H61.4351V34.4612Z" fill="white"/>
<path d="M80.2536 34.4612H81.897L77.0389 39.3109V42.552H75.8034V39.3109L70.9574 34.4612H72.6007L76.4272 38.3055L80.2536 34.4612Z" fill="white"/>
<path d="M88.1917 42.6703C86.4884 42.6703 85.2969 42.5638 84.6171 42.3509C83.9374 42.1301 83.5056 41.7161 83.3217 41.1089C83.1937 40.6909 83.1297 39.8275 83.1297 38.5184C83.1297 37.1857 83.1897 36.3223 83.3097 35.928C83.4936 35.3129 83.9294 34.8949 84.6171 34.6741C85.3049 34.4533 86.4964 34.3429 88.1917 34.3429C89.895 34.3429 91.0825 34.4533 91.7543 34.6741C92.434 34.887 92.8698 35.301 93.0617 35.9161C93.1897 36.3341 93.2536 37.2015 93.2536 38.5184C93.2536 39.8432 93.1937 40.7028 93.0737 41.0971C92.8898 41.7122 92.458 42.1301 91.7782 42.3509C91.0985 42.5638 89.903 42.6703 88.1917 42.6703ZM88.1917 41.582C90.0789 41.582 91.1905 41.444 91.5264 41.168C91.8622 40.892 92.0301 40.0088 92.0301 38.5184C92.0301 37.0201 91.8622 36.133 91.5264 35.857C91.1985 35.581 90.0869 35.443 88.1917 35.443C86.2965 35.443 85.1809 35.581 84.845 35.857C84.5172 36.133 84.3533 37.0201 84.3533 38.5184C84.3533 40.0009 84.5212 40.8842 84.857 41.168C85.1929 41.444 86.3045 41.582 88.1917 41.582Z" fill="white"/>
<path d="M95.0117 34.4494H96.799L103.84 41.5466V34.4494H105.064V42.552H103.216L96.2352 35.514V42.552H95.0117V34.4494Z" fill="white"/>
<path d="M107.545 34.4612H114.43C115.445 34.4612 116.137 34.6465 116.505 35.0172C117.049 35.5692 117.321 36.7323 117.321 38.5066C117.321 40.273 117.049 41.4322 116.505 41.9842C116.137 42.3627 115.445 42.552 114.43 42.552H107.545V34.4612ZM108.768 41.4637H114.418C115.082 41.4637 115.525 41.2666 115.749 40.8723C115.981 40.4702 116.097 39.6816 116.097 38.5066C116.097 37.3395 115.981 36.5549 115.749 36.1527C115.517 35.7505 115.074 35.5494 114.418 35.5494H108.768V41.4637Z" fill="white"/>
<path d="M125.651 34.4612H134.227V35.5494H130.557V42.552H129.333V35.5494H125.651V34.4612Z" fill="white"/>
<path d="M135.823 34.4612H137.047V37.8915H144.112V34.4612H145.323V42.552H144.112V38.9797H137.047V42.552H135.823V34.4612Z" fill="white"/>
<path d="M147.486 34.4612H155.343V35.5494H148.71V37.9033H155.115V38.9916H148.71V41.4637H155.343V42.552H147.486V34.4612Z" fill="white"/>
<path d="M165.935 34.4612L170.181 41.1089L174.427 34.4612H176.61V42.552H175.399V35.5494H175.159L170.565 42.552H169.797L165.203 35.5494H164.975V42.552H163.751V34.4612H165.935Z" fill="white"/>
<path d="M180.498 42.552H179.274V34.4612H180.498V42.552Z" fill="white"/>
<path d="M182.691 34.4494H184.478L191.52 41.5466V34.4494H192.743V42.552H190.896L183.915 35.514V42.552H182.691V34.4494Z" fill="white"/>
<path d="M195.224 34.4612H202.109C203.125 34.4612 203.816 34.6465 204.184 35.0172C204.728 35.5692 205 36.7323 205 38.5066C205 40.273 204.728 41.4322 204.184 41.9842C203.816 42.3627 203.125 42.552 202.109 42.552H195.224V34.4612ZM196.447 41.4637H202.097C202.761 41.4637 203.205 41.2666 203.429 40.8723C203.661 40.4702 203.777 39.6816 203.777 38.5066C203.777 37.3395 203.661 36.5549 203.429 36.1527C203.197 35.7505 202.753 35.5494 202.097 35.5494H196.447V41.4637Z" fill="white"/>
</svg>
