<svg width="223" height="29" viewBox="0 0 223 29" fill="none" xmlns="http://www.w3.org/2000/svg">
<path d="M3.84099 14.2148C3.84099 19.235 4.34308 22.2283 5.34726 23.1948C6.35144 24.1612 9.42674 24.6444 14.5732 24.6444C19.3681 24.6444 22.2928 24.3626 23.3472 23.7988C24.5773 23.1277 25.1924 21.3156 25.1924 18.3625H29.0334C29.0334 22.7384 28.1798 25.5035 26.4727 26.6579C24.7907 27.7854 20.8242 28.3492 14.5732 28.3492C8.22172 28.3492 4.205 27.5438 2.523 25.933C0.841001 24.3223 0 20.4162 0 14.2148C0 7.98662 0.828448 4.06714 2.48534 2.45639C4.16735 0.818797 8.19662 0 14.5732 0C20.8493 0 24.8283 0.563762 26.5103 1.69128C28.1923 2.81881 29.0334 5.58392 29.0334 9.98664H25.1924C25.1924 7.0336 24.6275 5.26178 23.4978 4.67117C22.3681 4.05372 19.3932 3.74499 14.5732 3.74499C9.40163 3.74499 6.31378 4.22821 5.3096 5.19466C4.33053 6.13426 3.84099 9.14099 3.84099 14.2148Z" fill="#52566D"/>
<path d="M39.5057 19.933C39.5057 22.0807 40.058 23.4095 41.1626 23.9196C42.2923 24.4028 45.2672 24.6444 50.0873 24.6444C54.9576 24.6444 57.945 24.4028 59.0496 23.9196C60.1542 23.4095 60.7065 22.0807 60.7065 19.933V0.402687H64.5475V19.933C64.5475 23.7183 63.8446 26.0404 62.4387 26.8995C60.8822 27.8659 56.7651 28.3492 50.0873 28.3492C43.4346 28.3492 39.3677 27.8928 37.8865 26.98C36.4053 26.0673 35.6648 23.7183 35.6648 19.933V0.402687H39.5057V19.933Z" fill="#52566D"/>
<path d="M98.8157 19.8927C98.8157 22.6042 98.1128 24.631 96.7069 25.9733C95.3262 27.2888 93.2927 27.9465 90.6065 27.9465H69.933V0.402687H89.7028C92.3387 0.402687 94.3597 1.07383 95.7655 2.41612C97.1714 3.75841 97.8743 5.69131 97.8743 8.21481C97.8743 10.9799 96.9078 12.7518 94.9747 13.5303C96.0793 13.933 96.958 14.6041 97.6107 15.5437C98.414 16.6981 98.8157 18.1478 98.8157 19.8927ZM94.071 8.21481C94.071 6.95306 93.7697 5.98661 93.1672 5.31547C92.4392 4.51009 91.2844 4.10741 89.7028 4.10741H73.774V11.9195H89.7028C91.3346 11.9195 92.4643 11.6242 93.0919 11.0336C93.7446 10.4162 94.071 9.47657 94.071 8.21481ZM73.774 15.6243V24.2418H90.5689C92.0249 24.2418 93.117 23.8525 93.845 23.074C94.5982 22.2686 94.9747 21.2216 94.9747 19.933C94.9747 18.6713 94.5982 17.6377 93.845 16.8323C93.0919 16.0269 91.9998 15.6243 90.5689 15.6243H73.774Z" fill="#52566D"/>
<path d="M109.657 27.9465H105.816V0.402687H109.657V27.9465Z" fill="#52566D"/>
<path d="M115.902 0.402687H142.827V4.10741H131.304V27.9465H127.463V4.10741H115.902V0.402687Z" fill="#52566D"/>
<path d="M151.226 19.933C151.226 22.0807 151.778 23.4095 152.883 23.9196C154.012 24.4028 156.987 24.6444 161.807 24.6444C166.677 24.6444 169.665 24.4028 170.77 23.9196C171.874 23.4095 172.426 22.0807 172.426 19.933V0.402687H176.267V19.933C176.267 23.7183 175.564 26.0404 174.159 26.8995C172.602 27.8659 168.485 28.3492 161.807 28.3492C155.155 28.3492 151.088 27.8928 149.606 26.98C148.125 26.0673 147.385 23.7183 147.385 19.933V0.402687H151.226V19.933Z" fill="#52566D"/>
<path d="M189.485 0.402687L202.816 23.0337L216.146 0.402687H223V27.9465H219.197V4.10741H218.444L204.021 27.9465H201.611L187.188 4.10741H186.473V27.9465H182.632V0.402687H189.485Z" fill="#52566D"/>
</svg>
