<?xml version="1.0" standalone="no"?>
<!DOCTYPE svg PUBLIC "-//W3C//DTD SVG 20010904//EN"
 "http://www.w3.org/TR/2001/REC-SVG-20010904/DTD/svg10.dtd">
<svg version="1.0" xmlns="http://www.w3.org/2000/svg"
 width="602.000000pt" height="602.000000pt" viewBox="0 0 602.000000 602.000000"
 preserveAspectRatio="xMidYMid meet">
<metadata>
Created by potrace 1.11, written by Peter Selinger 2001-2013
</metadata>
<g transform="translate(0.000000,602.000000) scale(0.100000,-0.100000)"
fill="#000000" stroke="none">
<path d="M2632 5095 c-40 -23 -262 -201 -262 -211 0 -2 11 2 25 8 14 6 25 15
25 19 0 8 41 33 73 45 9 3 17 13 17 20 0 8 11 19 25 24 14 5 35 19 47 29 11
11 35 27 52 35 17 9 42 25 56 36 23 18 23 20 5 20 -11 0 -40 -11 -63 -25z"/>
<path d="M2999 5008 c30 -31 67 -62 83 -69 15 -6 28 -15 28 -20 0 -5 8 -9 18
-9 10 0 22 -4 27 -9 13 -11 181 -68 220 -74 17 -3 49 -12 72 -22 54 -21 71
-17 46 13 -15 18 -156 69 -243 87 -47 10 -161 45 -181 55 -12 7 -46 33 -73 58
l-51 46 54 -56z"/>
<path d="M2295 4939 c-10 -15 3 -25 16 -12 7 7 7 13 1 17 -6 3 -14 1 -17 -5z"/>
<path d="M2560 4880 c-120 -24 -173 -42 -265 -89 -44 -23 -71 -39 -60 -36 11
4 25 8 30 9 6 2 18 6 27 11 10 4 25 4 34 1 8 -3 13 -2 10 3 -3 5 14 14 39 20
24 6 47 16 50 21 4 6 11 7 17 4 6 -4 13 -3 17 2 10 15 61 35 61 24 0 -6 7 -10
16 -10 8 0 13 4 10 9 -3 5 3 11 14 14 11 3 23 1 26 -4 3 -5 17 -9 31 -9 17 0
24 4 20 14 -4 11 7 15 46 18 29 2 66 1 82 -3 24 -6 20 -7 -22 -8 -29 -1 -53
-5 -53 -10 0 -4 11 -6 25 -3 30 5 145 -15 162 -30 7 -5 16 -7 21 -4 5 3 20 -3
33 -13 13 -10 41 -28 61 -39 31 -18 37 -19 42 -6 8 22 7 26 -4 19 -5 -3 -38
10 -73 28 -35 19 -82 38 -105 42 -40 6 -59 25 -27 25 8 0 15 5 15 11 0 16
-179 9 -280 -11z"/>
<path d="M2280 4880 c0 -5 5 -10 10 -10 6 0 10 5 10 10 0 6 -4 10 -10 10 -5 0
-10 -4 -10 -10z"/>
<path d="M2880 4880 c8 -5 22 -9 30 -9 10 0 8 3 -5 9 -27 12 -43 12 -25 0z"/>
<path d="M2339 4863 c-13 -16 -12 -17 4 -4 16 13 21 21 13 21 -2 0 -10 -8 -17
-17z"/>
<path d="M2650 4860 c0 -5 7 -10 15 -10 8 0 15 5 15 10 0 6 -7 10 -15 10 -8 0
-15 -4 -15 -10z"/>
<path d="M3027 4829 c7 -7 15 -10 18 -7 3 3 -2 9 -12 12 -14 6 -15 5 -6 -5z"/>
<path d="M2185 4810 c3 -5 8 -10 11 -10 2 0 4 5 4 10 0 6 -5 10 -11 10 -5 0
-7 -4 -4 -10z"/>
<path d="M3065 4800 c3 -5 11 -10 17 -10 7 0 22 -10 34 -21 13 -12 32 -27 43
-33 37 -21 131 -88 137 -97 10 -18 -24 -9 -52 13 l-29 23 16 -25 c9 -13 24
-29 34 -34 25 -14 42 -27 66 -49 11 -10 49 -33 84 -53 56 -30 65 -32 65 -17 0
11 3 14 8 7 8 -12 40 -27 61 -28 8 -1 16 -7 19 -15 3 -10 -2 -11 -19 -7 -19 5
-20 5 -8 -3 9 -6 28 -7 43 -3 l28 8 -21 18 c-12 11 -21 25 -21 33 0 10 -6 12
-20 8 -15 -5 -20 -2 -20 10 0 13 -6 16 -25 13 -14 -3 -25 -2 -25 3 0 9 -87 69
-100 69 -4 0 -10 -3 -13 -7 -2 -5 -2 -2 -1 5 3 10 -65 62 -82 62 -3 0 -24 15
-47 34 -84 67 -192 128 -172 96z m399 -286 c4 -11 2 -12 -14 -1 -11 6 -20 15
-20 19 0 12 28 -3 34 -18z"/>
<path d="M3810 4782 c139 -64 322 -157 337 -171 56 -50 122 -101 132 -101 6 0
11 -4 11 -8 0 -13 36 -52 47 -52 5 0 18 -17 29 -37 11 -21 25 -38 31 -38 6 0
15 -4 20 -9 5 -5 3 -6 -4 -2 -22 12 -14 -15 10 -34 19 -16 20 -22 10 -39 -8
-13 -9 -22 -3 -26 6 -3 10 1 10 9 0 9 5 16 10 16 6 0 10 -7 10 -15 0 -8 17
-23 38 -34 20 -11 31 -20 25 -21 -23 0 -14 -18 12 -24 14 -4 23 -11 20 -15 -3
-5 0 -11 6 -13 20 -7 -3 -38 -27 -36 -13 1 -24 5 -24 9 0 11 -37 17 -51 8 -12
-7 -12 -9 0 -9 7 0 11 -6 8 -15 -4 -8 -2 -17 2 -20 5 -2 11 4 14 15 4 17 8 18
31 7 30 -14 33 -22 10 -31 -8 -3 -13 -10 -10 -15 3 -5 -10 -4 -29 2 -19 5 -37
18 -40 28 -4 10 -12 16 -20 13 -8 -3 -37 6 -64 21 -32 18 -56 25 -68 21 -17
-7 -16 -9 6 -27 13 -10 30 -19 37 -19 26 0 104 -54 104 -72 0 -10 -38 9 -59
29 -11 12 -15 12 -22 2 -4 -8 -3 -19 2 -26 6 -7 8 -17 4 -23 -10 -17 -39 -11
-53 11 -8 12 -19 18 -29 15 -23 -9 -33 2 -24 28 7 17 5 25 -11 35 -11 7 -23
10 -26 6 -4 -3 0 -10 8 -15 11 -7 11 -13 3 -32 l-12 -23 0 23 c-1 21 -31 33
-31 12 0 -5 -5 -10 -11 -10 -5 0 -7 4 -4 10 3 6 -1 7 -9 4 -9 -3 -16 -1 -16 5
0 6 -9 11 -20 11 -11 0 -20 5 -20 10 0 6 -8 10 -18 10 -10 0 -24 6 -32 13 -10
8 -9 5 2 -13 8 -14 24 -27 34 -29 11 -1 26 -9 34 -16 8 -8 27 -16 42 -20 15
-4 32 -13 39 -21 6 -8 18 -14 25 -14 8 0 14 -4 14 -10 0 -5 5 -10 11 -10 5 0
24 -13 42 -30 18 -16 38 -30 45 -30 7 0 16 -8 19 -17 7 -17 39 -53 48 -53 3 0
16 -11 29 -25 15 -16 30 -23 40 -19 12 4 16 0 16 -15 0 -12 10 -29 22 -39 11
-9 30 -25 41 -36 11 -10 31 -18 44 -18 18 0 21 -3 12 -9 -11 -6 -11 -11 -1
-21 6 -6 12 -24 12 -38 0 -15 13 -40 30 -59 32 -34 34 -71 4 -71 -8 0 -12 -5
-9 -10 3 -6 0 -12 -7 -15 -20 -8 -20 -45 1 -74 25 -37 33 -71 15 -71 -8 0 -14
-4 -14 -9 0 -5 -8 -11 -17 -15 -66 -23 -73 -24 -88 -9 -13 12 -18 13 -31 3
-12 -11 -17 -8 -27 19 -13 35 -27 41 -27 12 0 -31 -19 -35 -45 -11 -22 21 -23
21 -29 2 -4 -10 -3 -27 0 -37 6 -14 3 -16 -17 -10 -27 8 -51 34 -43 46 3 5 1
9 -5 9 -15 0 -23 -18 -11 -25 14 -9 2 -25 -18 -25 -13 0 -17 10 -18 48 -1 26
-6 60 -13 75 -10 26 -12 27 -27 12 -22 -22 -29 -12 -11 17 13 21 12 25 -5 42
-20 18 -20 18 -13 -13 4 -17 2 -31 -3 -31 -10 0 -7 -73 4 -91 5 -9 2 -10 -9
-6 -9 3 -17 1 -19 -4 -2 -6 -30 -12 -61 -13 -52 -2 -60 0 -77 23 l-20 26 -23
-27 c-16 -20 -32 -28 -54 -28 -22 0 -32 -5 -36 -20 -3 -11 -12 -20 -21 -20
-10 0 -19 -11 -22 -30 -7 -31 -24 -42 -24 -14 0 10 -6 14 -15 10 -8 -3 -16 -1
-16 4 -6 48 -27 69 -85 86 -31 9 -72 25 -91 37 -65 38 -216 62 -225 35 -3 -9
-9 -8 -21 4 -9 9 -34 22 -54 28 -21 7 -69 28 -107 47 -46 23 -78 32 -95 29
-17 -4 -39 2 -61 17 -20 12 -51 31 -70 42 -80 47 -130 134 -130 226 0 22 -5
39 -11 39 -5 0 -7 5 -4 10 3 6 3 16 -2 23 -4 6 -8 18 -10 26 -1 7 -6 18 -12
24 -8 8 -11 5 -11 -11 0 -12 -5 -22 -11 -22 -6 0 -9 7 -6 15 4 8 2 17 -3 20
-10 6 -17 -29 -11 -67 2 -18 9 -28 20 -28 15 -1 15 -2 -1 -13 -11 -9 -13 -18
-8 -28 14 -24 5 -93 -20 -153 -25 -62 -40 -72 -40 -25 0 36 -19 35 -37 -2 -10
-19 -13 -20 -13 -6 0 11 -5 15 -11 11 -8 -5 -9 6 -4 37 16 93 22 164 14 167
-5 2 -3 12 3 22 9 14 9 22 -1 34 -7 9 -17 14 -21 11 -5 -3 -11 -1 -15 5 -4 6
-11 8 -16 5 -5 -4 -9 -1 -9 6 0 7 -10 33 -22 58 l-22 46 -7 -33 c-11 -54 -24
-60 -59 -27 -25 24 -33 27 -40 15 -11 -18 -33 -1 -50 40 -7 16 -16 27 -21 24
-5 -3 -6 1 -3 9 3 8 -2 20 -10 27 -9 7 -13 17 -9 24 4 7 2 8 -5 1 -6 -5 -13
-30 -17 -55 -7 -49 -40 -116 -61 -124 -18 -7 -30 20 -33 74 -3 62 -11 100 -22
100 -5 0 -9 -18 -9 -40 0 -27 -4 -39 -12 -37 -7 1 -12 -7 -11 -17 1 -11 -5
-25 -13 -33 -7 -8 -18 -21 -22 -30 -15 -27 -32 -6 -22 27 15 52 6 151 -18 198
-22 42 -40 57 -28 25 5 -16 4 -16 -6 -3 -7 8 -22 22 -33 30 -18 13 -19 13 -8
0 16 -21 25 -100 11 -100 -6 0 -8 -10 -4 -24 9 -36 -11 -75 -35 -69 -13 4 -19
14 -19 34 0 39 -22 89 -49 113 -28 26 -33 18 -16 -29 8 -24 10 -44 4 -51 -5
-6 -6 -14 -2 -17 3 -4 0 -7 -8 -7 -11 0 -11 -2 1 -10 13 -8 12 -10 -2 -10 -10
0 -18 -7 -18 -15 0 -8 -6 -12 -13 -9 -7 2 -19 -7 -27 -21 -7 -14 -17 -25 -22
-25 -4 0 -8 -6 -8 -14 0 -12 -20 -26 -36 -26 -2 0 -2 11 2 25 6 24 5 24 -25
14 -17 -6 -31 -17 -31 -24 0 -7 -11 -15 -25 -17 -21 -5 -25 -2 -20 14 4 10 4
32 0 48 -11 49 -58 56 -163 24 -19 -5 -21 -3 -16 12 4 11 16 31 26 46 16 23
16 27 4 22 -9 -3 -16 -4 -16 0 0 8 160 136 171 136 5 0 9 7 9 15 0 8 21 28 48
45 49 31 46 35 -23 31 -13 0 -9 4 11 12 17 6 42 20 55 29 19 13 20 17 7 17 -9
1 -19 -3 -22 -8 -3 -4 -20 -11 -38 -14 -18 -3 -42 -9 -53 -13 -11 -4 -2 7 20
24 22 17 43 32 46 32 4 0 24 8 45 17 22 9 53 18 69 20 45 5 95 23 95 35 0 6
-8 7 -17 3 -10 -4 -45 -11 -78 -16 -32 -6 -64 -14 -70 -18 -17 -14 -67 -23
-60 -11 3 5 1 10 -4 10 -6 0 -11 -9 -11 -20 0 -23 -22 -26 -43 -6 -12 12 -28
2 -113 -74 -107 -93 -145 -117 -237 -146 -37 -11 -63 -26 -74 -43 -11 -17 -13
-26 -5 -29 31 -10 5 -17 -61 -17 -58 1 -72 4 -70 16 3 16 -33 24 -42 8 -4 -5
-11 -9 -16 -9 -6 0 -8 4 -4 9 10 18 -59 -8 -100 -37 -56 -39 -111 -116 -137
-192 -31 -90 -29 -194 6 -320 14 -52 26 -107 26 -122 0 -14 -16 -82 -36 -150
-53 -180 -92 -330 -114 -438 -11 -52 -37 -149 -60 -215 -67 -197 -85 -286 -85
-410 0 -138 20 -190 104 -267 59 -54 62 -56 244 -168 99 -61 124 -82 159 -131
22 -32 45 -56 51 -52 6 4 8 0 4 -11 -5 -11 2 -25 20 -42 15 -14 28 -33 29 -42
2 -9 10 -22 19 -29 10 -6 14 -16 11 -21 -10 -17 69 -85 139 -118 91 -43 175
-67 175 -51 0 8 3 8 9 -2 5 -7 28 -17 52 -22 92 -18 403 -49 633 -64 131 -8
241 -17 244 -20 3 -3 0 -5 -7 -5 -7 0 -10 -4 -6 -9 3 -5 1 -13 -5 -16 -6 -4
-9 -1 -8 6 4 19 -82 30 -89 12 -3 -7 -14 -13 -24 -13 -23 0 -24 -13 -5 -33 9
-9 11 -19 5 -28 -7 -12 -9 -11 -9 2 0 9 -8 23 -17 30 -15 12 -16 12 -10 -3 4
-12 2 -18 -7 -18 -8 0 -16 5 -18 11 -2 7 -13 9 -26 4 -19 -5 -21 -9 -11 -21 7
-8 18 -13 26 -10 7 3 13 1 13 -4 0 -6 -5 -10 -11 -10 -5 0 -7 -5 -3 -12 5 -8
2 -9 -9 -5 -10 4 -17 2 -17 -5 0 -7 -4 -7 -14 1 -11 9 -13 6 -11 -13 2 -18 -1
-23 -11 -19 -8 3 -14 -1 -14 -8 -1 -10 -4 -9 -10 3 -11 18 -42 17 -66 -3 -11
-9 -21 -9 -39 -1 -20 9 -23 9 -18 -4 4 -10 1 -12 -13 -7 -12 4 -15 3 -10 -6 6
-9 0 -11 -21 -9 -21 2 -30 -2 -38 -20 -7 -17 -17 -22 -35 -20 -14 1 -34 -4
-45 -12 -23 -17 -30 -51 -9 -43 8 3 14 1 14 -4 0 -18 -13 -22 -34 -12 -18 9
-19 8 -5 -3 9 -7 20 -28 24 -46 8 -38 19 -35 20 5 0 14 6 27 13 29 7 1 8 0 2
-3 -13 -6 -13 -33 -1 -33 5 0 13 -9 16 -20 3 -11 11 -20 17 -20 7 0 6 5 -1 14
-9 11 -9 16 0 22 8 5 9 3 4 -6 -6 -10 -4 -12 8 -7 9 3 19 2 23 -4 3 -5 15 -7
27 -4 17 5 19 4 7 -4 -11 -8 -12 -11 -2 -11 7 0 11 -3 9 -8 -3 -4 13 -8 36 -9
26 -1 46 -8 54 -19 8 -11 13 -13 13 -5 0 10 4 10 12 3 7 -5 32 -9 55 -8 39 1
42 -1 36 -21 -3 -14 -1 -23 6 -23 6 0 11 4 11 9 0 14 54 8 65 -7 12 -14 45 -6
45 11 0 6 6 3 13 -7 7 -10 28 -19 46 -21 18 -1 36 -7 40 -12 7 -12 40 -11 60
2 9 5 12 4 7 -3 -3 -6 -2 -13 4 -17 5 -3 10 -1 10 5 0 6 5 8 12 4 20 -12 48
-12 48 1 0 6 16 12 35 13 24 2 35 -2 35 -11 0 -8 7 -14 15 -14 11 0 12 3 3 14
-9 11 -7 12 14 4 14 -5 29 -7 32 -3 10 10 37 11 30 1 -3 -5 0 -9 5 -9 6 0 11
8 11 18 0 14 2 15 9 2 6 -8 7 -19 5 -25 -3 -5 2 -1 10 9 10 13 16 15 16 7 0
-11 3 -11 15 -1 13 11 14 10 9 -4 -5 -13 -2 -15 12 -9 11 3 22 11 26 17 4 6
19 6 43 -1 31 -10 36 -9 31 3 -3 8 -1 14 4 14 6 0 10 -4 10 -10 0 -16 33 -12
59 7 14 9 21 12 18 6 -10 -16 13 -21 46 -12 16 5 25 4 22 -2 -4 -5 1 -9 10 -9
9 0 13 4 10 10 -4 7 3 7 19 0 20 -7 26 -6 26 5 0 7 6 17 13 21 6 4 9 4 5 -1
-9 -9 9 -35 24 -35 6 0 4 7 -3 17 -13 15 -12 15 6 6 11 -6 26 -8 34 -5 7 2 18
-2 23 -9 7 -11 8 -9 4 5 -5 13 -2 17 9 13 8 -4 21 1 30 9 13 14 15 13 15 -7 0
-19 2 -20 17 -8 15 12 16 12 10 -3 -5 -15 -3 -16 13 -8 11 6 29 14 40 20 25
12 33 13 26 1 -4 -5 3 -7 14 -4 11 3 18 9 15 13 -3 4 2 11 11 14 12 4 15 2 10
-9 -3 -8 -1 -15 4 -15 6 0 10 5 10 10 0 6 5 10 11 10 6 0 8 -7 5 -16 -6 -15
-4 -15 17 -1 25 16 43 17 64 4 6 -4 34 -2 63 4 39 8 54 8 65 -1 11 -9 15 -9
15 -1 0 6 9 11 20 11 14 0 18 -5 14 -17 -5 -14 -4 -15 4 -4 5 7 18 11 29 7 10
-3 28 1 39 9 18 14 18 14 -4 15 -16 0 -21 -4 -16 -12 5 -9 2 -9 -9 1 -9 7 -17
16 -17 19 0 3 3 2 6 -1 4 -3 14 -2 23 2 11 6 23 4 36 -5 21 -15 36 -18 34 -6
-3 20 2 25 12 12 8 -11 12 -12 16 -2 2 6 11 12 19 12 9 0 12 -5 8 -11 -4 -8 0
-8 15 0 12 7 25 9 30 6 13 -7 42 5 35 16 -3 5 0 9 5 9 6 0 11 -4 11 -9 0 -5 9
-7 20 -4 11 3 20 9 20 13 0 4 15 7 33 7 24 1 27 -1 13 -6 -12 -5 -15 -10 -9
-14 10 -6 59 25 74 46 4 5 17 4 29 -3 20 -11 22 -10 17 3 -4 12 0 14 19 11 16
-3 27 1 31 11 3 9 12 14 20 11 8 -3 25 6 39 22 17 19 22 22 17 8 -4 -13 -3
-17 5 -12 7 4 12 14 12 23 0 13 3 13 16 3 8 -8 14 -9 13 -4 -3 12 19 64 26 64
4 0 4 -3 1 -8 -2 -4 3 -16 11 -27 15 -20 15 -20 10 2 -3 13 1 27 9 34 12 10
13 9 8 -5 -4 -9 -1 -16 6 -16 6 0 14 9 17 20 3 11 12 20 20 20 10 0 14 -7 10
-20 -3 -11 -2 -20 3 -20 11 0 20 26 12 34 -3 4 -7 19 -9 34 -2 23 -1 24 7 7 7
-16 9 -16 9 -4 1 10 9 16 19 15 9 0 16 5 15 12 -2 6 4 12 12 12 12 0 14 4 5
19 -6 11 -6 22 -1 25 5 3 11 -3 14 -14 5 -21 27 -28 27 -9 0 5 -4 8 -9 5 -5
-4 -7 4 -3 16 3 12 7 17 10 10 2 -6 10 -12 18 -12 9 0 12 5 9 10 -3 6 1 10 9
10 8 0 20 -8 25 -17 6 -10 11 -13 11 -6 0 6 -6 18 -12 25 -13 13 -14 16 -16
68 -1 17 -6 30 -11 30 -4 0 -6 -12 -3 -26 4 -24 3 -25 -17 -15 -11 7 -21 17
-21 24 0 7 4 6 10 -3 8 -13 10 -12 10 3 0 9 -11 23 -25 29 -14 6 -25 18 -25
27 -1 13 -3 12 -11 -3 -9 -15 -13 -16 -21 -5 -8 11 -9 11 -5 -1 2 -8 11 -14
19 -12 9 1 20 -4 27 -11 9 -12 6 -14 -18 -13 -16 1 -27 4 -24 9 6 10 -5 9 -30
-4 -21 -12 -22 -11 -4 8 16 18 16 21 3 26 -9 4 -15 3 -15 -1 3 -20 -3 -19 -26
3 -25 26 -69 33 -80 15 -5 -8 -11 -8 -20 0 -10 8 -15 8 -20 0 -5 -8 -11 -6
-20 6 -7 10 -19 15 -28 11 -9 -3 -19 -2 -22 3 -4 6 -16 10 -28 9 -12 0 -16 -3
-9 -6 6 -2 12 -9 12 -15 0 -7 -5 -6 -14 2 -8 6 -12 18 -9 26 3 8 0 14 -6 14
-6 0 -11 -4 -11 -10 0 -5 -7 -10 -15 -10 -8 0 -15 5 -15 11 0 6 -8 18 -17 27
-16 16 -16 16 -10 0 3 -10 1 -20 -5 -24 -7 -4 -8 -3 -4 4 4 7 2 12 -4 12 -7 0
-10 7 -6 15 8 21 -4 19 -31 -7 -14 -13 -23 -17 -23 -9 0 8 -6 11 -16 7 -9 -4
-14 -1 -12 6 2 6 42 21 89 34 173 46 321 110 429 185 320 223 623 780 746
1375 27 132 27 171 -1 160 -10 -4 -17 3 -21 22 -12 57 -14 59 -32 35 -21 -26
-52 -36 -72 -23 -8 5 -11 10 -7 10 5 0 2 6 -6 14 -8 9 -29 13 -51 12 -27 -3
-41 2 -49 14 -6 10 -16 16 -22 13 -13 -4 -31 34 -39 82 -7 44 -13 67 -25 98
-8 20 -8 47 -1 90 23 145 29 175 41 228 12 55 12 58 -17 115 -16 33 -32 61
-36 62 -5 2 -8 8 -8 13 0 11 -38 72 -93 147 -21 28 -33 52 -27 52 5 0 10 -5
10 -11 0 -8 5 -7 15 1 9 7 12 16 7 19 -5 3 -14 16 -21 29 -6 12 -18 22 -26 22
-8 0 -15 7 -15 15 0 8 -6 12 -14 9 -8 -3 -17 0 -22 7 -5 8 -3 10 7 4 8 -4 4 2
-8 14 -12 11 -29 21 -38 21 -9 0 -13 5 -10 10 3 6 -1 13 -9 16 -9 3 -16 10
-16 15 0 8 49 -9 60 -21 21 -23 98 -70 115 -70 12 0 44 -12 71 -26 47 -25 48
-25 29 -4 -19 21 -70 53 -174 110 -25 14 -77 43 -116 64 -81 45 -106 64 -55
42 85 -36 308 -166 360 -210 l25 -21 -25 29 c-25 28 -175 131 -260 179 -115
64 -179 95 -184 89 -3 -3 -6 -1 -6 4 0 6 -17 16 -37 23 -41 14 -141 61 -158
74 -51 40 -407 211 -523 251 -111 39 -138 45 -82 18z m-2100 -372 c0 -5 -4
-10 -10 -10 -5 0 -10 5 -10 10 0 6 5 10 10 10 6 0 10 -4 10 -10z m3036 -131
c19 -21 19 -21 -9 -8 -15 7 -27 16 -27 21 0 14 16 9 36 -13z m-226 -14 c7 -8
8 -15 2 -15 -5 0 -15 7 -22 15 -7 8 -8 15 -2 15 5 0 15 -7 22 -15z m-3402
-162 c33 -6 58 -35 47 -53 -3 -6 0 -10 9 -10 8 0 17 5 19 10 3 6 4 5 3 -2 -1
-7 -12 -14 -24 -16 -22 -3 -32 -22 -12 -22 6 0 10 -5 10 -11 0 -6 -6 -9 -14
-6 -17 7 -28 -5 -46 -51 -11 -29 -11 -35 1 -43 10 -6 11 -11 2 -20 -14 -14
-36 -2 -26 14 3 7 -6 -1 -22 -16 -27 -27 -68 -49 -111 -61 -28 -8 -57 25 -57
64 0 57 67 168 133 220 14 11 32 17 40 14 8 -3 30 -8 48 -11z m114 -5 c-9 -9
-15 -9 -24 0 -9 9 -7 12 12 12 19 0 21 -3 12 -12z m3328 -33 c0 -8 -5 -15 -11
-15 -5 0 -8 4 -5 9 4 5 0 12 -6 14 -8 3 -6 6 5 6 9 1 17 -6 17 -14z m54 0 c-4
-8 -8 -15 -10 -15 -2 0 -4 7 -4 15 0 8 4 15 10 15 5 0 7 -7 4 -15z m-3339 -45
c3 -5 1 -10 -4 -10 -6 0 -11 5 -11 10 0 6 2 10 4 10 3 0 8 -4 11 -10z m3135
-11 c0 -5 -7 -9 -15 -9 -8 0 -15 7 -15 15 0 9 6 12 15 9 8 -4 15 -10 15 -15z
m-2367 -15 c-8 -22 -32 -17 -26 5 3 11 11 17 18 14 8 -2 11 -11 8 -19z m-823
6 c0 -5 -2 -10 -4 -10 -3 0 -8 5 -11 10 -3 6 -1 10 4 10 6 0 11 -4 11 -10z
m345 -32 c-4 -13 -18 -31 -31 -41 -13 -10 -24 -23 -24 -27 0 -18 -46 -57 -92
-79 -27 -13 -48 -28 -48 -35 0 -21 -75 -114 -148 -184 -38 -37 -82 -86 -97
-109 -15 -24 -30 -43 -32 -43 -3 0 1 10 9 23 9 12 30 47 49 77 69 113 301 389
354 422 43 26 68 24 60 -4z m-385 -23 c-14 -17 -40 -20 -40 -5 0 9 14 14 33
11 4 0 7 4 7 11 0 6 3 8 6 5 4 -4 1 -13 -6 -22z m-32 -27 c7 -9 6 -16 -2 -24
-9 -8 -15 -5 -23 13 -9 18 -8 23 2 23 7 0 17 -6 23 -12z m1492 -22 c0 -3 -4
-8 -10 -11 -5 -3 -10 -1 -10 4 0 6 5 11 10 11 6 0 10 -2 10 -4z m200 -16 c0
-5 -4 -10 -10 -10 -5 0 -10 5 -10 10 0 6 5 10 10 10 6 0 10 -4 10 -10z m1821
-53 c-13 -13 -26 -3 -16 12 3 6 11 8 17 5 6 -4 6 -10 -1 -17z m-91 3 c0 -5 -4
-10 -10 -10 -5 0 -10 5 -10 10 0 6 5 10 10 10 6 0 10 -4 10 -10z m20 -46 c0
-23 -21 -27 -40 -7 -17 19 -17 20 11 20 17 0 29 -6 29 -13z m-1929 -56 l-9
-33 -1 41 c-1 22 2 44 7 48 12 12 14 -19 3 -56z m2069 -29 c0 -5 -7 -9 -15 -9
-15 0 -20 12 -9 23 8 8 24 -1 24 -14z m-40 -18 c0 -4 -12 -13 -26 -19 -26 -12
-26 -7 -1 25 9 13 27 9 27 -6z m110 -31 c0 -5 -4 -10 -10 -10 -5 0 -10 5 -10
10 0 6 5 10 10 10 6 0 10 -4 10 -10z m-75 -20 c-3 -5 -11 -10 -16 -10 -6 0 -7
5 -4 10 3 6 11 10 16 10 6 0 7 -4 4 -10z m79 -41 c-3 -5 -10 -7 -15 -3 -5 3
-7 10 -3 15 3 5 10 7 15 3 5 -3 7 -10 3 -15z m32 -76 c-10 -10 -19 5 -10 18 6
11 8 11 12 0 2 -7 1 -15 -2 -18z m-146 -52 c0 -6 -4 -13 -10 -16 -5 -3 -10 1
-10 9 0 9 5 16 10 16 6 0 10 -4 10 -9z m-424 -78 c-7 -7 -26 7 -26 19 0 6 6 6
15 -2 9 -7 13 -15 11 -17z m624 -63 c0 -5 -4 -10 -10 -10 -5 0 -10 5 -10 10 0
6 5 10 10 10 6 0 10 -4 10 -10z m-350 -10 c0 -5 -4 -10 -10 -10 -5 0 -10 5
-10 10 0 6 5 10 10 10 6 0 10 -4 10 -10z m53 -36 c8 -8 -3 -34 -14 -34 -5 0
-9 9 -9 20 0 19 11 26 23 14z m37 -48 c0 -3 -4 -8 -10 -11 -5 -3 -10 -1 -10 4
0 6 5 11 10 11 6 0 10 -2 10 -4z m450 -172 c0 -8 -5 -12 -10 -9 -6 4 -8 11 -5
16 9 14 15 11 15 -7z m-95 -14 c3 -5 -1 -10 -10 -10 -9 0 -13 5 -10 10 3 6 8
10 10 10 2 0 7 -4 10 -10z m166 -198 c-14 -5 -2 -32 14 -32 15 0 30 -63 15
-68 -5 -2 -10 -17 -10 -33 0 -19 -5 -29 -15 -29 -8 0 -14 -3 -14 -7 3 -20 -2
-34 -10 -29 -5 4 -7 -4 -3 -16 3 -14 1 -19 -6 -14 -6 3 -14 1 -18 -5 -3 -6 0
-15 7 -20 11 -7 11 -9 -3 -9 -9 0 -18 5 -20 11 -3 8 -10 9 -23 2 -27 -14 -44
-6 -38 17 3 10 11 16 18 14 16 -6 12 41 -5 61 -14 17 -21 67 -9 59 5 -3 9 2 9
10 0 9 -6 16 -12 17 -10 0 -10 2 0 6 6 2 10 9 7 14 -3 4 1 19 10 32 13 20 23
24 66 23 28 0 46 -2 40 -4z m-1216 -222 c3 -5 1 -10 -4 -10 -6 0 -11 5 -11 10
0 6 2 10 4 10 3 0 8 -4 11 -10z m-125 -170 c0 -5 -4 -10 -10 -10 -5 0 -10 5
-10 10 0 6 5 10 10 10 6 0 10 -4 10 -10z m-2770 -650 c0 -5 -5 -10 -11 -10 -5
0 -7 5 -4 10 3 6 8 10 11 10 2 0 4 -4 4 -10z m525 -330 c-3 -5 -10 -10 -16
-10 -5 0 -9 5 -9 10 0 6 7 10 16 10 8 0 12 -4 9 -10z m2625 -150 c0 -5 -4 -10
-10 -10 -5 0 -10 5 -10 10 0 6 5 10 10 10 6 0 10 -4 10 -10z m-203 -6 c-3 -3
-12 -4 -19 -1 -8 3 -5 6 6 6 11 1 17 -2 13 -5z m-60 -10 c-3 -3 -12 -4 -19 -1
-8 3 -5 6 6 6 11 1 17 -2 13 -5z m-54 -11 c-7 -2 -19 -2 -25 0 -7 3 -2 5 12 5
14 0 19 -2 13 -5z m503 -25 c4 -7 4 -10 -1 -6 -4 4 -15 2 -24 -5 -14 -11 -14
-10 -2 6 16 20 18 21 27 5z m124 -6 c0 -14 -11 -21 -26 -15 -21 8 -17 23 6 23
11 0 20 -4 20 -8z m30 -16 c0 -3 -4 -8 -10 -11 -5 -3 -10 -1 -10 4 0 6 5 11
10 11 6 0 10 -2 10 -4z m-1921 -30 c-10 -9 -109 -14 -104 -6 4 6 29 10 57 10
28 0 49 -2 47 -4z m-189 -24 c0 -4 -9 -8 -19 -8 -11 0 -17 4 -15 8 7 10 34 10
34 0z m2220 -6 c0 -2 -7 -7 -16 -10 -8 -3 -12 -2 -9 4 6 10 25 14 25 6z
m-2475 -136 c3 -5 -1 -10 -10 -10 -9 0 -13 5 -10 10 3 6 8 10 10 10 2 0 7 -4
10 -10z m-145 -40 c0 -5 -2 -10 -4 -10 -3 0 -8 5 -11 10 -3 6 -1 10 4 10 6 0
11 -4 11 -10z m136 -189 c-4 -5 -1 -12 4 -14 6 -3 5 -4 -2 -3 -15 3 -23 26 -8
26 6 0 9 -4 6 -9z m142 -66 c-3 -3 -13 -2 -22 1 -14 5 -15 9 -4 15 13 8 36 -6
26 -16z m57 -13 c-3 -3 -11 0 -18 7 -9 10 -8 11 6 5 10 -3 15 -9 12 -12z"/>
<path d="M2548 4773 c7 -3 16 -2 19 1 4 3 -2 6 -13 5 -11 0 -14 -3 -6 -6z"/>
<path d="M2625 4750 c76 -30 183 -117 247 -200 69 -88 199 -302 201 -329 1
-21 44 -36 50 -18 2 6 23 -13 47 -42 25 -29 49 -50 57 -47 7 3 13 1 13 -4 0
-6 7 -10 15 -10 19 0 9 26 -27 68 -15 18 -28 36 -28 41 0 5 -12 24 -27 43 -16
19 -37 47 -48 63 -11 15 -29 39 -41 54 -11 14 -31 43 -43 64 -12 20 -27 35
-32 32 -5 -4 -6 1 -3 9 4 10 1 16 -7 16 -8 0 -42 28 -76 63 -33 34 -72 70 -85
80 -12 10 -41 32 -63 48 -49 38 -125 76 -168 83 -23 5 -18 1 18 -14z"/>
<path d="M2155 4726 c-55 -37 -84 -66 -66 -66 6 0 11 4 11 9 0 5 6 9 13 8 39
-1 67 4 67 14 0 6 -9 8 -20 4 -33 -11 -22 10 15 28 19 9 35 21 35 27 0 14 1
14 -55 -24z"/>
<path d="M3040 4755 c0 -13 44 -64 50 -60 4 3 14 -3 21 -13 13 -15 12 -16 -3
-3 -27 20 -21 -2 6 -28 14 -13 29 -20 35 -17 5 4 12 2 16 -4 3 -5 1 -10 -6
-10 -18 0 10 -30 38 -41 13 -5 23 -15 23 -24 0 -8 4 -15 10 -15 5 0 22 -13 37
-30 14 -16 31 -30 37 -30 18 0 75 -44 80 -62 2 -10 11 -18 20 -18 10 0 13 -5
9 -17 -5 -13 -2 -15 12 -10 9 4 23 3 29 -2 28 -23 149 -80 159 -74 6 3 7 1 3
-5 -12 -19 28 -33 51 -17 12 8 25 10 33 5 12 -7 11 -13 -5 -31 l-20 -21 33 7
c23 5 34 3 37 -7 3 -7 16 -14 30 -14 23 -2 24 -1 8 23 -9 13 -22 22 -29 19 -9
-3 -16 4 -20 19 -4 17 -15 27 -33 31 -54 12 -60 15 -63 37 -2 18 -9 22 -35 21
-18 0 -29 4 -27 10 4 11 -57 56 -75 56 -5 0 -11 -8 -13 -17 -3 -15 -5 -15 -18
-1 -8 8 -26 17 -40 21 -26 6 -120 83 -120 98 0 5 8 5 18 2 15 -6 15 -5 3 10
-7 9 -17 17 -21 17 -4 0 -23 14 -41 31 -24 22 -39 29 -56 24 -13 -3 -23 -1
-23 5 0 6 6 8 13 4 6 -4 -6 12 -28 35 -21 22 -43 41 -48 41 -5 0 -22 14 -39
30 -27 27 -48 38 -48 25z m228 -184 c3 -8 -1 -12 -9 -9 -7 2 -15 10 -17 17 -3
8 1 12 9 9 7 -2 15 -10 17 -17z m362 -243 c0 -6 -6 -5 -15 2 -8 7 -15 14 -15
16 0 2 7 1 15 -2 8 -4 15 -11 15 -16z"/>
<path d="M3170 4690 c20 -13 33 -13 25 0 -3 6 -14 10 -23 10 -15 0 -15 -2 -2
-10z"/>
<path d="M2210 4660 c0 -5 5 -10 10 -10 6 0 10 5 10 10 0 6 -4 10 -10 10 -5 0
-10 -4 -10 -10z"/>
<path d="M2333 4603 c-3 -10 -8 -22 -11 -26 -2 -5 5 -4 17 2 23 13 27 26 11
36 -6 3 -13 -2 -17 -12z"/>
<path d="M2485 4570 c-3 -5 -1 -10 4 -10 6 0 11 5 11 10 0 6 -2 10 -4 10 -3 0
-8 -4 -11 -10z"/>
<path d="M2140 4549 c0 -5 5 -7 10 -4 6 3 10 8 10 11 0 2 -4 4 -10 4 -5 0 -10
-5 -10 -11z"/>
<path d="M3030 4530 c6 -11 13 -20 16 -20 2 0 0 9 -6 20 -6 11 -13 20 -16 20
-2 0 0 -9 6 -20z"/>
<path d="M2559 4499 c12 -12 25 -19 28 -15 7 7 -23 36 -38 36 -7 0 -3 -9 10
-21z"/>
<path d="M3060 4503 c1 -5 12 -21 25 -38 21 -25 27 -28 35 -15 12 19 13 33 1
26 -4 -3 -16 3 -26 14 -18 20 -35 26 -35 13z"/>
<path d="M3410 4475 c0 -8 7 -15 16 -15 14 0 14 3 4 15 -7 8 -14 15 -16 15 -2
0 -4 -7 -4 -15z"/>
<path d="M3125 4430 c-3 -5 -1 -10 4 -10 6 0 11 5 11 10 0 6 -2 10 -4 10 -3 0
-8 -4 -11 -10z"/>
<path d="M3645 4430 c4 -6 11 -8 16 -5 14 9 11 15 -7 15 -8 0 -12 -5 -9 -10z"/>
<path d="M2740 4420 c0 -5 5 -10 10 -10 6 0 10 5 10 10 0 6 -4 10 -10 10 -5 0
-10 -4 -10 -10z"/>
<path d="M3136 4402 c-3 -5 4 -16 15 -25 10 -9 19 -14 19 -10 0 4 5 2 12 -5
17 -17 38 -15 38 3 0 8 -9 15 -19 15 -11 0 -26 7 -35 15 -17 17 -23 18 -30 7z"/>
<path d="M3647 4393 c-9 -2 -15 -8 -12 -13 6 -10 45 -1 45 11 0 9 -4 10 -33 2z"/>
<path d="M2760 4387 c0 -2 11 -27 25 -55 14 -29 26 -64 27 -78 2 -25 53 -73
64 -61 3 3 -6 23 -20 46 -14 22 -26 47 -26 56 0 8 -4 15 -9 15 -5 0 -12 12
-15 26 -4 15 -13 33 -21 40 -13 13 -25 18 -25 11z"/>
<path d="M3220 4316 c-9 -25 -7 -33 8 -48 15 -15 24 -17 44 -9 22 8 25 7 21
-8 -5 -21 22 -48 32 -31 3 5 15 10 25 10 14 0 8 10 -26 44 -24 25 -44 49 -44
54 0 5 -11 12 -25 14 -20 4 -26 0 -35 -26z"/>
<path d="M3670 4330 c0 -5 5 -10 10 -10 6 0 10 5 10 10 0 6 -4 10 -10 10 -5 0
-10 -4 -10 -10z"/>
<path d="M3750 4314 c0 -8 5 -12 10 -9 6 4 8 11 5 16 -9 14 -15 11 -15 -7z"/>
<path d="M3840 4275 c0 -8 5 -15 10 -15 6 0 10 7 10 15 0 8 -4 15 -10 15 -5 0
-10 -7 -10 -15z"/>
<path d="M4005 4250 c3 -5 8 -10 11 -10 2 0 4 5 4 10 0 6 -5 10 -11 10 -5 0
-7 -4 -4 -10z"/>
<path d="M3260 4236 c0 -9 5 -16 10 -16 6 0 10 4 10 9 0 6 -4 13 -10 16 -5 3
-10 -1 -10 -9z"/>
<path d="M3400 4240 c-9 -6 -10 -10 -3 -10 6 0 15 5 18 10 8 12 4 12 -15 0z"/>
<path d="M3550 4235 c0 -8 4 -15 10 -15 5 0 7 7 4 15 -4 8 -8 15 -10 15 -2 0
-4 -7 -4 -15z"/>
<path d="M3635 4230 c-3 -5 -1 -10 4 -10 6 0 11 5 11 10 0 6 -2 10 -4 10 -3 0
-8 -4 -11 -10z"/>
<path d="M3546 4201 c-4 -7 -5 -15 -2 -18 9 -9 19 4 14 18 -4 11 -6 11 -12 0z"/>
<path d="M3790 4190 c0 -5 5 -10 10 -10 6 0 10 5 10 10 0 6 -4 10 -10 10 -5 0
-10 -4 -10 -10z"/>
<path d="M4035 4190 c-3 -5 -1 -10 4 -10 6 0 11 5 11 10 0 6 -2 10 -4 10 -3 0
-8 -4 -11 -10z"/>
<path d="M1250 4170 l-25 -8 28 -1 c15 -1 27 4 27 9 0 6 -1 10 -2 9 -2 -1 -14
-5 -28 -9z"/>
<path d="M3625 4160 c-3 -5 1 -10 9 -10 9 0 16 5 16 10 0 6 -4 10 -9 10 -6 0
-13 -4 -16 -10z"/>
<path d="M4128 4148 c6 -6 21 -12 32 -13 15 -1 17 1 9 12 -6 7 -21 13 -32 13
-16 0 -18 -3 -9 -12z"/>
<path d="M3865 4120 c-3 -5 -2 -10 4 -10 5 0 13 5 16 10 3 6 2 10 -4 10 -5 0
-13 -4 -16 -10z"/>
<path d="M3661 4074 c0 -11 3 -14 6 -6 3 7 2 16 -1 19 -3 4 -6 -2 -5 -13z"/>
<path d="M3785 4080 c3 -5 10 -10 16 -10 5 0 9 5 9 10 0 6 -7 10 -16 10 -8 0
-12 -4 -9 -10z"/>
<path d="M4320 4071 c-7 -15 -7 -21 0 -21 12 0 25 28 17 36 -3 3 -10 -4 -17
-15z"/>
<path d="M3720 4070 c0 -5 5 -10 11 -10 5 0 7 5 4 10 -3 6 -8 10 -11 10 -2 0
-4 -4 -4 -10z"/>
<path d="M3683 4035 c2 -5 17 -9 32 -7 22 3 26 0 21 -14 -5 -14 -4 -15 9 -4
24 20 18 28 -25 32 -25 2 -39 0 -37 -7z"/>
<path d="M3770 4016 c0 -16 24 -28 63 -31 15 -1 34 -11 42 -21 7 -10 17 -16
21 -12 14 14 -27 46 -66 52 -22 3 -40 11 -40 16 0 6 -4 10 -10 10 -5 0 -10 -6
-10 -14z"/>
<path d="M3910 3960 c0 -5 5 -10 10 -10 6 0 10 5 10 10 0 6 -4 10 -10 10 -5 0
-10 -4 -10 -10z"/>
<path d="M2939 3898 c4 -28 6 -29 9 -9 2 13 0 27 -5 32 -6 6 -7 -3 -4 -23z"/>
<path d="M4304 3681 c8 -12 46 -21 46 -11 0 8 -24 20 -41 20 -6 0 -8 -4 -5 -9z"/>
<path d="M4620 3545 c0 -8 4 -15 10 -15 5 0 7 7 4 15 -4 8 -8 15 -10 15 -2 0
-4 -7 -4 -15z"/>
<path d="M4690 1240 c0 -5 5 -10 11 -10 5 0 7 5 4 10 -3 6 -8 10 -11 10 -2 0
-4 -4 -4 -10z"/>
<path d="M2213 1153 c4 -3 3 -11 -3 -17 -6 -8 -3 -12 10 -12 15 0 16 4 9 18
-5 10 -13 18 -16 18 -3 0 -3 -3 0 -7z"/>
<path d="M1860 1001 c0 -5 7 -12 16 -15 14 -5 15 -4 4 9 -14 17 -20 19 -20 6z"/>
<path d="M1981 824 c0 -11 3 -14 6 -6 3 7 2 16 -1 19 -3 4 -6 -2 -5 -13z"/>
</g>
</svg>
