<?xml version="1.0" standalone="no"?>
<!DOCTYPE svg PUBLIC "-//W3C//DTD SVG 20010904//EN"
 "http://www.w3.org/TR/2001/REC-SVG-20010904/DTD/svg10.dtd">
<svg version="1.0" xmlns="http://www.w3.org/2000/svg"
 width="260.000000pt" height="260.000000pt" viewBox="0 0 260.000000 260.000000"
 preserveAspectRatio="xMidYMid meet">
<metadata>
Created by potrace 1.11, written by Peter Selinger 2001-2013
</metadata>
<g transform="translate(0.000000,260.000000) scale(0.100000,-0.100000)"
fill="#000000" stroke="none">
<path d="M872 2017 l-392 -392 0 -672 0 -673 790 0 c745 0 790 1 791 18 1 23
1 719 0 753 l-1 26 -392 -1 -393 -1 -3 -87 c-2 -79 -1 -88 15 -89 10 0 147 -1
306 -1 158 0 287 -3 288 -7 1 -9 1 -393 0 -413 -1 -17 -37 -18 -611 -18 l-610
0 0 544 0 545 300 298 c166 164 304 299 308 300 4 2 184 -172 400 -385 280
-277 392 -381 393 -367 1 25 1 218 0 225 -1 8 -32 39 -428 433 -198 196 -362
357 -364 356 -2 0 -181 -177 -397 -392z"/>
</g>
</svg>
