<svg width="32" height="32" viewBox="0 0 32 32" fill="none" xmlns="http://www.w3.org/2000/svg">
<g filter="url(#filter0_d)">
<circle r="14.5" transform="matrix(-1 0 0 1 16 15)" stroke="white"/>
</g>
<path d="M21.0605 23.25C20.3843 23.25 19.5678 23.0806 18.6698 22.7417C16.701 21.9995 14.559 20.5325 12.6383 18.6118C10.7171 16.6906 9.25015 14.5481 8.50736 12.5793C7.83234 10.7893 7.8307 9.32016 8.50353 8.64788C8.60027 8.55114 8.69866 8.44729 8.80032 8.34016C9.41412 7.69467 10.1077 6.96828 11.027 7.00107C11.6605 7.02731 12.2743 7.42084 12.9029 8.20297C14.7601 10.5128 13.9228 11.3359 12.9537 12.2902L12.7826 12.4596C12.6241 12.6182 12.3246 13.3522 15.111 16.1386C16.0205 17.0481 16.7961 17.7138 17.4159 18.1166C17.8062 18.3702 18.5041 18.7539 18.7905 18.4675L18.9627 18.2937C19.9159 17.3268 20.7391 16.4922 23.0472 18.3478C23.8294 18.9764 24.2224 19.5896 24.2486 20.2242C24.2863 21.143 23.5545 21.8382 22.9084 22.4515C22.8018 22.5531 22.698 22.6515 22.6012 22.7477C22.2673 23.0822 21.7333 23.25 21.0605 23.25Z" fill="white"/>
<defs>
<filter id="filter0_d" x="0" y="0" width="32" height="32" filterUnits="userSpaceOnUse" color-interpolation-filters="sRGB">
<feFlood flood-opacity="0" result="BackgroundImageFix"/>
<feColorMatrix in="SourceAlpha" type="matrix" values="0 0 0 0 0 0 0 0 0 0 0 0 0 0 0 0 0 0 127 0"/>
<feOffset dy="1"/>
<feGaussianBlur stdDeviation="0.5"/>
<feColorMatrix type="matrix" values="0 0 0 0 0 0 0 0 0 0 0 0 0 0 0 0 0 0 0.15 0"/>
<feBlend mode="normal" in2="BackgroundImageFix" result="effect1_dropShadow"/>
<feBlend mode="normal" in="SourceGraphic" in2="effect1_dropShadow" result="shape"/>
</filter>
</defs>
</svg>
