<svg width="135" height="40" viewBox="0 0 135 40" fill="none" xmlns="http://www.w3.org/2000/svg">
<path fill-rule="evenodd" clip-rule="evenodd" d="M3.32746 35.9243H25.8363V27.8785H14.5775V24.551H29.1637V39.2517H25.8363H3.32746H0V35.9243V14.4542L14.5775 0C19.4366 4.81514 24.3046 9.63908 29.1637 14.4542V19.1285C24.287 14.3134 19.4454 9.50704 14.5775 4.7007L3.32746 15.8363V35.9243Z" fill="white"/>
<path fill-rule="evenodd" clip-rule="evenodd" d="M60.396 39.2517C60.4136 31.2499 60.4488 23.257 60.396 15.2552C60.396 10.9418 63.4418 7.32387 67.4999 6.45239V9.9119C65.2992 10.6953 63.7323 12.7904 63.7323 15.2552L63.7499 21.2235H67.4999V24.551H63.7499L63.7235 39.2517H60.396Z" fill="white"/>
<path fill-rule="evenodd" clip-rule="evenodd" d="M74.2693 21.2234H92.2886V24.5509H74.2693V21.2234Z" fill="#F4841A"/>
<path fill-rule="evenodd" clip-rule="evenodd" d="M74.2693 28.5737H92.2886V31.9012H74.2693V28.5737Z" fill="white"/>
<path fill-rule="evenodd" clip-rule="evenodd" d="M74.2693 35.9241H92.2886V39.2515H74.2693V35.9241Z" fill="white"/>
<path fill-rule="evenodd" clip-rule="evenodd" d="M99.0669 21.2234H117.086V24.5509H102.386V28.6266H113.759H117.086C117.086 32.1653 117.086 35.7128 117.086 39.2515H99.0669V35.9241H113.759V31.954H99.0669C99.0669 28.3801 99.0669 24.8061 99.0669 21.2234Z" fill="white"/>
<path fill-rule="evenodd" clip-rule="evenodd" d="M123.855 39.2517V35.9242C123.855 26.6284 123.855 17.3238 123.855 8.02808H127.183C127.183 22.5703 127.183 22.9665 127.183 35.9242H135V39.2517H127.183H123.855Z" fill="white"/>
<path fill-rule="evenodd" clip-rule="evenodd" d="M35.9331 21.2234H53.9525V24.5509H35.9331V21.2234Z" fill="#F4841A"/>
<path fill-rule="evenodd" clip-rule="evenodd" d="M35.9331 28.5737H53.9525V31.9012H35.9331V28.5737Z" fill="white"/>
<path fill-rule="evenodd" clip-rule="evenodd" d="M35.9331 35.9241H53.9525V39.2515H35.9331V35.9241Z" fill="white"/>
<path fill-rule="evenodd" clip-rule="evenodd" d="M123.855 21.2234H130.924V24.5509H123.855V21.2234Z" fill="white"/>
</svg>
