<svg width="58" height="767" viewBox="0 0 58 767" fill="none" xmlns="http://www.w3.org/2000/svg">
<g style="mix-blend-mode:difference">
<path d="M46 502.044L46 503.934L45.064 503.934C45.832 504.606 46.216 505.542 46.216 506.742C46.216 507.534 45.964 508.236 45.46 508.848C44.944 509.46 44.236 509.766 43.336 509.766C42.412 509.766 41.71 509.466 41.23 508.866C40.75 508.254 40.51 507.546 40.51 506.742C40.51 505.506 40.882 504.57 41.626 503.934L40.33 503.934C39.826 503.934 39.43 504.12 39.142 504.492C38.854 504.864 38.71 505.356 38.71 505.968C38.71 506.94 39.076 507.798 39.808 508.542L38.494 509.316C37.558 508.332 37.09 507.114 37.09 505.662C37.09 504.594 37.342 503.724 37.846 503.052C38.35 502.38 39.148 502.044 40.24 502.044L46 502.044ZM44.92 506.004C44.92 505.056 44.62 504.366 44.02 503.934L42.706 503.934C42.106 504.366 41.806 505.056 41.806 506.004C41.806 506.544 41.95 506.988 42.238 507.336C42.526 507.684 42.904 507.858 43.372 507.858C43.84 507.858 44.218 507.684 44.506 507.336C44.782 506.988 44.92 506.544 44.92 506.004ZM46 497.703L46 499.593L37.306 499.593L37.306 497.703L38.584 497.703C38.152 497.367 37.798 496.947 37.522 496.443C37.246 495.939 37.108 495.417 37.108 494.877L38.98 494.877C38.944 495.045 38.926 495.243 38.926 495.471C38.926 495.867 39.046 496.293 39.286 496.749C39.514 497.193 39.778 497.511 40.078 497.703L46 497.703ZM46.216 489.393C46.216 490.713 45.79 491.793 44.938 492.633C44.074 493.473 42.976 493.893 41.644 493.893C40.324 493.893 39.238 493.473 38.386 492.633C37.522 491.793 37.09 490.713 37.09 489.393C37.09 487.941 37.606 486.831 38.638 486.063L39.79 487.305C39.106 487.785 38.764 488.451 38.764 489.303C38.764 490.095 39.034 490.731 39.574 491.211C40.102 491.691 40.792 491.931 41.644 491.931C42.496 491.931 43.192 491.691 43.732 491.211C44.272 490.731 44.542 490.095 44.542 489.303C44.542 488.475 44.2 487.809 43.516 487.305L44.668 486.063C45.7 486.831 46.216 487.941 46.216 489.393ZM46 476.63L46 478.52L40.528 478.52C39.892 478.52 39.442 478.676 39.178 478.988C38.902 479.288 38.764 479.72 38.764 480.284C38.764 480.728 38.878 481.148 39.106 481.544C39.334 481.94 39.61 482.264 39.934 482.516L46 482.516L46 484.406L33.994 484.406L33.994 482.516L38.494 482.516C38.11 482.192 37.78 481.76 37.504 481.22C37.228 480.668 37.09 480.074 37.09 479.438C37.09 477.566 38.008 476.63 39.844 476.63L46 476.63ZM36.244 473.239C36.244 473.551 36.13 473.827 35.902 474.067C35.674 474.295 35.398 474.409 35.074 474.409C34.75 474.409 34.474 474.295 34.246 474.067C34.018 473.827 33.904 473.551 33.904 473.239C33.904 472.915 34.018 472.639 34.246 472.411C34.474 472.183 34.75 472.069 35.074 472.069C35.398 472.069 35.674 472.183 35.902 472.411C36.13 472.639 36.244 472.915 36.244 473.239ZM46 472.285L46 474.175L37.306 474.175L37.306 472.285L46 472.285ZM46.216 467.224C46.216 467.956 46.024 468.514 45.64 468.898C45.256 469.27 44.704 469.456 43.984 469.456L38.962 469.456L38.962 470.896L37.306 470.896L37.306 469.456L34.93 469.456L34.93 467.566L37.306 467.566L37.306 465.802L38.962 465.802L38.962 467.566L43.516 467.566C43.828 467.566 44.08 467.494 44.272 467.35C44.452 467.206 44.542 467.002 44.542 466.738C44.542 466.354 44.44 466.072 44.236 465.892L45.658 465.442C46.03 465.838 46.216 466.432 46.216 467.224ZM46.216 460.072C46.216 461.392 45.796 462.484 44.956 463.348C44.104 464.2 43 464.626 41.644 464.626C40.372 464.626 39.298 464.212 38.422 463.384C37.534 462.544 37.09 461.488 37.09 460.216C37.09 458.932 37.534 457.9 38.422 457.12C39.31 456.328 40.444 455.932 41.824 455.932L42.274 455.932L42.274 462.646C42.958 462.574 43.528 462.292 43.984 461.8C44.44 461.308 44.668 460.666 44.668 459.874C44.668 459.43 44.584 458.986 44.416 458.542C44.248 458.086 44.014 457.708 43.714 457.408L44.956 456.544C45.796 457.42 46.216 458.596 46.216 460.072ZM40.942 457.768C40.342 457.792 39.808 458.014 39.34 458.434C38.872 458.842 38.638 459.436 38.638 460.216C38.638 460.96 38.872 461.542 39.34 461.962C39.796 462.382 40.33 462.616 40.942 462.664L40.942 457.768ZM46.216 450.106C46.216 451.426 45.79 452.506 44.938 453.346C44.074 454.186 42.976 454.606 41.644 454.606C40.324 454.606 39.238 454.186 38.386 453.346C37.522 452.506 37.09 451.426 37.09 450.106C37.09 448.654 37.606 447.544 38.638 446.776L39.79 448.018C39.106 448.498 38.764 449.164 38.764 450.016C38.764 450.808 39.034 451.444 39.574 451.924C40.102 452.404 40.792 452.644 41.644 452.644C42.496 452.644 43.192 452.404 43.732 451.924C44.272 451.444 44.542 450.808 44.542 450.016C44.542 449.188 44.2 448.522 43.516 448.018L44.668 446.776C45.7 447.544 46.216 448.654 46.216 450.106ZM46.216 442.509C46.216 443.241 46.024 443.799 45.64 444.183C45.256 444.555 44.704 444.741 43.984 444.741L38.962 444.741L38.962 446.181L37.306 446.181L37.306 444.741L34.93 444.741L34.93 442.851L37.306 442.851L37.306 441.087L38.962 441.087L38.962 442.851L43.516 442.851C43.828 442.851 44.08 442.779 44.272 442.635C44.452 442.491 44.542 442.287 44.542 442.023C44.542 441.639 44.44 441.357 44.236 441.177L45.658 440.727C46.03 441.123 46.216 441.717 46.216 442.509ZM46 431.613L46 433.503L44.848 433.503C45.76 434.319 46.216 435.345 46.216 436.581C46.216 438.441 45.298 439.371 43.462 439.371L37.306 439.371L37.306 437.481L42.778 437.481C43.414 437.481 43.87 437.331 44.146 437.031C44.41 436.731 44.542 436.299 44.542 435.735C44.542 435.279 44.434 434.853 44.218 434.457C44.002 434.061 43.732 433.743 43.408 433.503L37.306 433.503L37.306 431.613L46 431.613ZM46 427.268L46 429.158L37.306 429.158L37.306 427.268L38.584 427.268C38.152 426.932 37.798 426.512 37.522 426.008C37.246 425.504 37.108 424.982 37.108 424.442L38.98 424.442C38.944 424.61 38.926 424.808 38.926 425.036C38.926 425.432 39.046 425.858 39.286 426.314C39.514 426.758 39.778 427.076 40.078 427.268L46 427.268ZM46.216 418.904C46.216 420.224 45.796 421.316 44.956 422.18C44.104 423.032 43 423.458 41.644 423.458C40.372 423.458 39.298 423.044 38.422 422.216C37.534 421.376 37.09 420.32 37.09 419.048C37.09 417.764 37.534 416.732 38.422 415.952C39.31 415.16 40.444 414.764 41.824 414.764L42.274 414.764L42.274 421.478C42.958 421.406 43.528 421.124 43.984 420.632C44.44 420.14 44.668 419.498 44.668 418.706C44.668 418.262 44.584 417.818 44.416 417.374C44.248 416.918 44.014 416.54 43.714 416.24L44.956 415.376C45.796 416.252 46.216 417.428 46.216 418.904ZM40.942 416.6C40.342 416.624 39.808 416.846 39.34 417.266C38.872 417.674 38.638 418.268 38.638 419.048C38.638 419.792 38.872 420.374 39.34 420.794C39.796 421.214 40.33 421.448 40.942 421.496L40.942 416.6ZM45.838 411.132C46.078 411.384 46.198 411.678 46.198 412.014C46.198 412.35 46.078 412.644 45.838 412.896C45.586 413.148 45.286 413.274 44.938 413.274C44.59 413.274 44.296 413.148 44.056 412.896C43.804 412.644 43.678 412.35 43.678 412.014C43.678 411.678 43.804 411.384 44.056 411.132C44.296 410.88 44.59 410.754 44.938 410.754C45.286 410.754 45.586 410.88 45.838 411.132Z" fill="white" fill-opacity="0.6"/>
<path d="M36 123.975H55M36 278.891H55" stroke="white"/>
<path d="M13 1H56V766H13" stroke="white"/>
<path d="M18.24 129.367C18.24 130.247 18.04 131.027 17.64 131.707C17.2267 132.373 16.68 132.907 16 133.307C15.32 133.693 14.5867 133.987 13.8 134.187C13.0133 134.373 12.1933 134.467 11.34 134.467C10.4867 134.467 9.66667 134.373 8.88 134.187C8.09333 133.987 7.36667 133.693 6.7 133.307C6.02 132.907 5.48 132.373 5.08 131.707C4.66667 131.027 4.46 130.247 4.46 129.367C4.46 128.5 4.66667 127.727 5.08 127.047C5.48 126.367 6.02 125.833 6.7 125.447C7.36667 125.047 8.09333 124.753 8.88 124.567C9.66667 124.367 10.4867 124.267 11.34 124.267C12.1933 124.267 13.0133 124.367 13.8 124.567C14.5867 124.753 15.32 125.047 16 125.447C16.68 125.833 17.2267 126.367 17.64 127.047C18.04 127.727 18.24 128.5 18.24 129.367ZM15.94 131.367C16.4867 130.833 16.76 130.167 16.76 129.367C16.76 128.567 16.4867 127.9 15.94 127.367C15.38 126.833 14.7133 126.467 13.94 126.267C13.1667 126.067 12.3 125.967 11.34 125.967C10.38 125.967 9.51333 126.067 8.74 126.267C7.96667 126.467 7.30667 126.833 6.76 127.367C6.21333 127.9 5.94 128.567 5.94 129.367C5.94 130.167 6.21333 130.833 6.76 131.367C7.30667 131.9 7.96667 132.267 8.74 132.467C9.51333 132.667 10.38 132.767 11.34 132.767C12.3 132.767 13.1667 132.667 13.94 132.467C14.7133 132.267 15.38 131.9 15.94 131.367ZM18 116.021L18 117.681L6.86 117.681L9.12 119.821L8.1 120.821L4.66 117.481L4.66 116.021L18 116.021Z" fill="white"/>
<path d="M18.24 282.781C18.24 283.661 18.04 284.441 17.64 285.121C17.2267 285.787 16.68 286.321 16 286.721C15.32 287.107 14.5867 287.401 13.8 287.601C13.0133 287.787 12.1933 287.881 11.34 287.881C10.4867 287.881 9.66667 287.787 8.88 287.601C8.09333 287.401 7.36667 287.107 6.7 286.721C6.02 286.321 5.48 285.787 5.08 285.121C4.66667 284.441 4.46 283.661 4.46 282.781C4.46 281.914 4.66667 281.141 5.08 280.461C5.48 279.781 6.02 279.247 6.7 278.861C7.36667 278.461 8.09333 278.167 8.88 277.981C9.66667 277.781 10.4867 277.681 11.34 277.681C12.1933 277.681 13.0133 277.781 13.8 277.981C14.5867 278.167 15.32 278.461 16 278.861C16.68 279.247 17.2267 279.781 17.64 280.461C18.04 281.141 18.24 281.914 18.24 282.781ZM15.94 284.781C16.4867 284.247 16.76 283.581 16.76 282.781C16.76 281.981 16.4867 281.314 15.94 280.781C15.38 280.247 14.7133 279.881 13.94 279.681C13.1667 279.481 12.3 279.381 11.34 279.381C10.38 279.381 9.51333 279.481 8.74 279.681C7.96667 279.881 7.30667 280.247 6.76 280.781C6.21333 281.314 5.94 281.981 5.94 282.781C5.94 283.581 6.21333 284.247 6.76 284.781C7.30667 285.314 7.96667 285.681 8.74 285.881C9.51333 286.081 10.38 286.181 11.34 286.181C12.3 286.181 13.1667 286.081 13.94 285.881C14.7133 285.681 15.38 285.314 15.94 284.781ZM18 264.415L18 273.575L16.68 273.575C15.5867 272.188 14.72 271.115 14.08 270.355C13.4267 269.581 12.74 268.841 12.02 268.135C11.2867 267.415 10.64 266.908 10.08 266.615C9.50667 266.321 8.94 266.175 8.38 266.175C7.58 266.175 6.97333 266.448 6.56 266.995C6.14667 267.541 5.94 268.195 5.94 268.955C5.94 270.488 6.5 271.695 7.62 272.575L6.56 273.595C5.89333 273.088 5.38 272.428 5.02 271.615C4.64666 270.788 4.46 269.901 4.46 268.955C4.46 267.741 4.8 266.695 5.48 265.815C6.16 264.921 7.12666 264.475 8.38 264.475C9.62 264.475 10.86 265.008 12.1 266.075C13.3267 267.141 14.8 268.768 16.52 270.955L16.52 264.415L18 264.415Z" fill="white"/>
</g>
</svg>
