<svg width="108" height="163" viewBox="0 0 108 163" fill="none" xmlns="http://www.w3.org/2000/svg">
<path d="M18.605 80.7782V0.978794C18.605 0.451817 19.055 0.00012207 19.58 0.00012207H107.025C107.625 0.00012207 108 0.451817 108 0.978794V117.441C108 118.043 107.625 118.419 107.025 118.419H46.0535L46.2035 118.946C46.4285 119.473 46.2035 120 45.6785 120.226C45.5285 120.226 45.4535 120.302 45.3035 120.226L36.229 119.699L33.9792 128.507C33.9042 129.034 33.3792 129.335 32.8542 129.185C32.7042 129.11 32.5542 129.034 32.4043 128.959L25.5046 123.162L18.53 128.959C18.1551 129.335 17.5551 129.26 17.1801 128.884C17.1051 128.733 17.0301 128.583 16.9551 128.507L14.7802 119.699L5.70576 120.226C5.18079 120.302 4.73081 119.925 4.65582 119.323C4.65582 119.172 4.73081 119.022 4.80581 118.871L8.10562 110.515L0.456052 105.621C0.0060774 105.396 -0.143914 104.793 0.156069 104.342C0.231065 104.191 0.381056 104.041 0.456052 103.965L8.10562 99.1471L4.73081 90.7155C4.58082 90.1885 4.80581 89.6616 5.33078 89.4357C5.40577 89.4357 5.55577 89.3604 5.70576 89.3604L14.7802 89.9627L16.9551 81.1546C17.1051 80.6276 17.6301 80.3265 18.1551 80.4771C18.305 80.4771 18.455 80.6277 18.605 80.7029V80.7782ZM63.5275 107.654C63.5275 108.181 63.1525 108.633 62.6276 108.708C62.1026 108.708 61.6526 108.332 61.5776 107.805C61.3526 103.815 61.8026 100.276 62.6276 97.1145C63.5275 93.9526 64.8024 91.0919 66.2274 88.3817C66.4523 87.93 67.0523 87.7795 67.5023 88.0053C67.8023 88.1559 67.9523 88.457 68.0273 88.7582C68.3272 91.4683 68.6272 94.1785 69.3022 96.8134C69.6772 98.319 70.2021 99.7494 70.8021 101.18C71.0271 97.1898 71.1771 94.1785 72.002 92.8987C72.752 91.7695 73.7269 91.5436 75.0769 92.447C75.3018 92.5976 75.4518 92.8234 75.4518 93.0493C76.6518 99.2977 77.7017 101.18 78.4517 101.029C78.7516 100.954 79.1266 100.427 79.5016 99.7494C79.8766 98.846 80.1766 97.7921 80.3266 96.8887C80.4016 96.3617 80.7765 95.9853 80.7015 95.91H80.6265C80.1016 95.8347 79.8016 95.3077 79.8766 94.856C79.9516 94.3291 80.4016 93.9526 80.9265 94.0279H81.0765C82.1265 94.2538 83.1764 94.9313 83.7764 96.0606C84.0763 96.6628 84.3013 97.4156 84.3013 98.319C85.2013 97.8673 86.1012 97.1145 87.0762 96.2864C88.8761 94.7055 90.826 93.0493 93.1508 92.8987C93.6758 92.8987 94.1258 93.2751 94.2008 93.8021C94.2008 94.3291 93.8258 94.7808 93.2258 94.856C91.5759 94.9313 89.851 96.3617 88.2761 97.7168C86.7012 99.0719 85.2013 100.352 83.4764 100.653C83.4014 100.653 83.3264 100.728 83.1764 100.653C82.6514 100.653 82.2764 100.126 82.3514 99.5988C82.5014 98.6202 82.4264 97.8673 82.2015 97.2651C82.0515 98.319 81.6765 99.5236 81.2265 100.578C80.6265 101.782 79.8016 102.685 78.8266 102.911C77.1017 103.212 75.1518 101.18 73.6519 93.8774V93.9526C73.052 94.856 72.902 97.6415 72.677 101.406C72.677 102.46 72.602 103.589 72.527 104.718C72.527 105.019 72.377 105.245 72.077 105.471C71.627 105.772 71.0271 105.621 70.7271 105.17C69.1522 102.685 68.1022 100.051 67.4273 97.2651C67.0523 95.6089 66.7523 93.8774 66.4523 92.1459C65.7024 93.8774 65.0274 95.6842 64.5025 97.6415C63.6775 100.578 63.3025 103.89 63.5275 107.654ZM38.1039 124.818V161.782C38.1039 162.309 37.729 162.761 37.204 162.761C36.904 162.761 36.679 162.61 36.454 162.46L25.5046 152.824L14.4803 162.535C14.0303 162.836 13.4303 162.836 13.1303 162.384C12.9054 162.234 12.8304 162.008 12.8304 161.782V124.818C12.8304 124.291 13.2803 123.84 13.8053 123.84C14.2553 123.84 14.7053 124.141 14.7802 124.593L17.2551 134.229L24.9047 127.83C25.2797 127.529 25.8046 127.604 26.1046 127.905L33.7542 134.229L36.229 124.593C36.379 124.066 36.904 123.765 37.429 123.84C37.8789 123.99 38.1039 124.367 38.1039 124.818ZM36.229 159.674V132.573L35.2541 136.186C35.2541 136.337 35.1791 136.487 35.1041 136.563C34.7291 137.014 34.1292 137.09 33.7542 136.713L25.5046 129.862L17.3301 136.638C17.2551 136.788 17.1051 136.864 16.8801 136.939C16.3552 137.09 15.8302 136.713 15.7552 136.186L14.7802 132.573V159.674L24.8297 150.791C25.2047 150.49 25.7296 150.49 26.1046 150.791L36.229 159.674ZM45.3035 116.537H106.125V1.95747H20.5549V82.3591L25.5046 86.4997L32.4792 80.6277C32.8542 80.3265 33.4542 80.4018 33.8292 80.7782C33.9042 80.9288 33.9792 81.0041 33.9792 81.1546L36.229 89.9627L45.3035 89.3604C45.8285 89.3604 46.2785 89.7368 46.2785 90.2638C46.3535 90.4897 46.2785 90.6402 46.2035 90.7908L42.9037 99.1471L50.5532 104.04C51.0032 104.266 51.1532 104.869 50.8532 105.32C50.7782 105.471 50.6282 105.546 50.5532 105.621L42.9037 110.515L45.3035 116.537ZM24.9047 88.457L18.455 83.112L16.4302 91.2425C16.2802 91.6942 15.9052 91.9953 15.4552 91.9953L7.13068 91.3931L10.2055 99.1471C10.3555 99.5988 10.2055 100.126 9.83052 100.352L2.78092 104.793L9.83052 109.31C10.2055 109.536 10.3555 109.988 10.2055 110.44L7.13068 118.269L15.3802 117.667C15.8302 117.667 16.2802 117.968 16.4302 118.419L18.455 126.55L24.9047 121.205C25.2047 120.904 25.7296 120.904 26.1046 121.205L32.5542 126.55L34.5791 118.419C34.6541 117.968 35.1041 117.667 35.5541 117.667L43.8786 118.269L40.8038 110.515C40.6538 110.063 40.8038 109.536 41.1788 109.31L48.2284 104.793L41.1788 100.352C40.8038 100.126 40.6538 99.5988 40.8038 99.2224L43.8786 91.3931L35.6291 91.92C35.1791 91.9953 34.7291 91.6942 34.5791 91.2425L32.5542 83.112L26.1046 88.457C25.8046 88.7582 25.2797 88.7582 24.9047 88.457ZM25.5046 114.204C28.0545 114.204 30.4544 113.15 32.1043 111.493C33.8292 109.762 34.8791 107.428 34.8791 104.793C34.8791 102.234 33.8292 99.9 32.1043 98.1685C30.4544 96.437 28.0545 95.383 25.5046 95.383C22.8798 95.383 20.5549 96.437 18.905 98.1685C17.1801 99.9 16.1302 102.234 16.1302 104.793C16.1302 107.428 17.1801 109.762 18.905 111.493C20.5549 113.15 22.8798 114.204 25.5046 114.204ZM33.5292 112.849C31.4293 114.881 28.6545 116.161 25.5046 116.161C22.3548 116.161 19.58 114.881 17.4801 112.849C15.4552 110.816 14.1803 107.955 14.1803 104.793C14.1803 101.707 15.4552 98.846 17.4801 96.8134C19.58 94.7808 22.3548 93.501 25.5046 93.501C28.6545 93.501 31.4293 94.7808 33.5292 96.8134C35.5541 98.846 36.829 101.707 36.829 104.793C36.829 107.955 35.5541 110.816 33.5292 112.849ZM34.4291 73.6264C33.9042 73.6264 33.4542 73.1747 33.4542 72.6477C33.4542 72.1207 33.9042 71.669 34.4291 71.669H92.2509C92.7759 71.669 93.2258 72.1207 93.2258 72.6477C93.2258 73.1747 92.7759 73.6264 92.2509 73.6264H34.4291ZM34.4291 59.1721C33.9042 59.1721 33.4542 58.7205 33.4542 58.1935C33.4542 57.6665 33.9042 57.2148 34.4291 57.2148H92.2509C92.7759 57.2148 93.2258 57.6665 93.2258 58.1935C93.2258 58.7205 92.7759 59.1721 92.2509 59.1721H34.4291ZM34.4291 44.7179C33.9042 44.7179 33.4542 44.2662 33.4542 43.7392C33.4542 43.2123 33.9042 42.7606 34.4291 42.7606H92.2509C92.7759 42.7606 93.2258 43.2123 93.2258 43.7392C93.2258 44.2662 92.7759 44.7179 92.2509 44.7179H34.4291ZM43.9536 29.285V13.8521C43.9536 13.3251 44.4036 12.8734 44.9285 12.8734H81.7515C82.2764 12.8734 82.6514 13.3251 82.6514 13.8521V29.285C82.6514 29.812 82.2764 30.2637 81.7515 30.2637H44.9285C44.4036 30.2637 43.9536 29.812 43.9536 29.285ZM45.9035 14.8308V28.3063H80.7765V14.8308H45.9035Z" fill="#323232"/>
</svg>
