<svg width="123" height="132" viewBox="0 0 123 132" fill="none" xmlns="http://www.w3.org/2000/svg">
<path d="M116.647 1.79696H107.013C105.815 1.79696 104.67 2.48403 103.889 3.59391C103.003 4.8095 102.483 6.4479 102.483 8.24486V19.608H121.229V8.24486C121.229 6.4479 120.657 4.8095 119.823 3.59391C118.99 2.48403 117.845 1.79696 116.647 1.79696ZM16.768 99.6254C16.8201 100.101 16.4555 100.524 15.9348 100.577C15.4661 100.577 15.0495 100.207 14.9975 99.731C14.7892 95.9786 15.1537 92.7018 15.9869 89.7421C16.768 86.7824 17.9136 84.087 19.2676 81.5501C19.4759 81.1273 20.0487 80.9687 20.4653 81.1801C20.7257 81.3387 20.8819 81.6029 20.934 81.92C21.1943 84.4569 21.5588 86.9938 22.1317 89.4778C22.4962 90.852 22.9128 92.2261 23.4856 93.5474C23.6939 89.7949 23.8501 86.9938 24.6312 85.7782C25.3082 84.7212 26.1935 84.5098 27.4433 85.3554C27.6516 85.514 27.8078 85.7254 27.8599 85.9896C28.7972 90.6406 29.7345 92.8603 30.5677 93.6003C30.776 93.8117 31.0885 93.6531 31.3489 93.2831C31.8696 92.5432 32.2341 91.3276 32.3903 90.2178C32.4945 89.3193 32.5986 88.5794 32.5466 88.5794C32.0779 88.4208 31.8175 87.9451 31.9217 87.4695C32.0779 86.9938 32.5466 86.7296 33.0152 86.8353C34.0047 87.0467 34.942 87.6809 35.5148 88.7907C35.8273 89.3193 35.9835 90.0592 36.0356 90.9048C36.8688 90.4292 37.7019 89.6892 38.5872 88.9493C40.2536 87.4695 42.0241 85.9368 44.2113 85.7782C44.732 85.7782 45.1486 86.1482 45.1486 86.6767C45.2007 87.1524 44.8362 87.5752 44.3154 87.5752C42.7532 87.6809 41.1909 89.055 39.7329 90.3235C38.2748 91.5919 36.8688 92.8075 35.3065 93.0717C35.2024 93.0717 35.0982 93.0717 34.9941 93.0717C34.5254 93.0189 34.1609 92.5432 34.213 92.0676C34.3171 91.3276 34.265 90.7463 34.1609 90.2706V90.482C33.9526 91.8033 33.4839 93.336 32.8069 94.2873C31.9217 95.6086 30.724 96.19 29.37 94.9744C28.3285 94.0231 27.1829 91.5919 26.1935 86.7295C26.1414 86.7295 26.1414 86.7295 26.1414 86.7295C25.6207 87.5752 25.4644 90.2178 25.2561 93.7588C25.2041 94.763 25.152 95.82 25.0999 96.8242C25.0999 97.1413 24.9437 97.4056 24.6833 97.5641C24.2667 97.8284 23.746 97.6698 23.4856 97.2999C21.9754 94.9744 21.0381 92.4904 20.4132 89.9006C19.9966 88.3151 19.7362 86.7295 19.5279 85.0911C18.7989 86.7295 18.174 88.4208 17.7053 90.2178C16.9242 93.0189 16.5597 96.0843 16.768 99.6254ZM64.9369 107.817C64.5203 107.5 64.4162 106.972 64.7286 106.549C64.989 106.126 65.5618 106.073 65.9784 106.338L76.2371 113.79L92.276 98.8326C92.6406 98.5155 93.2134 98.5154 93.5258 98.8854C93.8903 99.2554 93.8383 99.8368 93.4737 100.154L76.9141 115.639C76.6016 115.956 76.1329 115.957 75.7684 115.692L64.9369 107.817ZM79.6219 82.66C80.0906 82.66 80.5593 82.66 81.0279 82.7128V22.7262H63.0622H62.9581C62.4894 22.7262 62.0728 22.3562 62.0728 21.8277V1.79696H1.77053V109.139H54.9907C54.9386 108.663 54.9386 108.187 54.9386 107.659V107.553V107.5V107.236C54.9386 100.471 57.6465 94.2873 62.0207 89.8478C66.395 85.4083 72.4877 82.66 79.1533 82.66H79.4136H79.4657H79.5699H79.6219ZM82.7985 82.9242C88.058 83.717 92.7447 86.201 96.3379 89.8478C100.712 94.2873 103.42 100.471 103.42 107.236C103.42 114.054 100.712 120.185 96.3379 124.624C91.9115 129.117 85.8709 131.865 79.1533 131.865C72.4877 131.865 66.395 129.117 62.0207 124.624C58.4276 121.03 55.9801 116.274 55.199 110.936H0.885267C0.416596 110.936 0 110.513 0 110.037V0.898478C0 0.422813 0.416596 0 0.885267 0H62.9581H63.0102H63.0622H63.1143H63.1664L63.2185 0.0528516H63.2705H63.3226L63.3747 0.105703H63.4268V0.158555H63.4788H63.5309V0.211407H63.583V0.264258H63.6351V0.31711H63.6871L82.5902 21.2464C82.7464 21.4049 82.7985 21.6163 82.7985 21.8277V82.9242ZM95.036 91.1162C91.5991 87.628 86.9644 85.2497 81.8611 84.6155H81.6528V84.5626H81.6008H81.5487H81.4966H81.4445H81.3925H81.1842C80.6113 84.5098 80.0385 84.4569 79.4657 84.4569C79.3616 84.4569 79.2574 84.4569 79.1533 84.4569C72.9564 84.4569 67.3323 86.9938 63.2705 91.1162C59.2087 95.2387 56.7091 100.947 56.7091 107.236C56.7091 107.342 56.7091 107.447 56.7091 107.553C56.7091 108.134 56.7612 108.716 56.8133 109.297V109.509V109.561V109.614V109.667V109.72H56.8654V109.773V109.826V109.931C57.4903 115.164 59.8336 119.815 63.2705 123.356C67.3323 127.478 72.9564 130.015 79.1533 130.015C85.3501 130.015 90.9742 127.478 95.036 123.356C99.0978 119.233 101.649 113.525 101.649 107.236C101.649 100.947 99.0978 95.2387 95.036 91.1162ZM14.6329 28.3285C14.1122 28.3285 13.7477 27.9585 13.7477 27.43C13.7477 26.9543 14.1122 26.5315 14.6329 26.5315H48.6897C49.1583 26.5315 49.5749 26.9543 49.5749 27.43C49.5749 27.9585 49.1583 28.3285 48.6897 28.3285H14.6329ZM14.6329 68.9714C14.1122 68.9714 13.7477 68.5486 13.7477 68.0729C13.7477 67.5444 14.1122 67.1744 14.6329 67.1744H68.1655C68.6863 67.1744 69.1029 67.5444 69.1029 68.0729C69.1029 68.5486 68.6863 68.9714 68.1655 68.9714H14.6329ZM14.6329 55.4414C14.1122 55.4414 13.7477 55.0186 13.7477 54.5429C13.7477 54.0144 14.1122 53.5916 14.6329 53.5916H68.1655C68.6863 53.5916 69.1029 54.0144 69.1029 54.5429C69.1029 55.0186 68.6863 55.4414 68.1655 55.4414H14.6329ZM14.6329 41.9114C14.1122 41.9114 13.7477 41.4885 13.7477 40.96C13.7477 40.4844 14.1122 40.0615 14.6329 40.0615H68.1655C68.6863 40.0615 69.1029 40.4844 69.1029 40.96C69.1029 41.4885 68.6863 41.9114 68.1655 41.9114H14.6329ZM14.6329 14.7985C14.1122 14.7985 13.7477 14.3756 13.7477 13.9C13.7477 13.3715 14.1122 13.0015 14.6329 13.0015H48.6897C49.1583 13.0015 49.5749 13.3715 49.5749 13.9C49.5749 14.3756 49.1583 14.7985 48.6897 14.7985H14.6329ZM63.8954 3.22395V20.9293H79.8823L63.8954 3.22395ZM107.013 0H116.647C118.47 0 120.084 0.951329 121.229 2.53688C122.323 4.01673 123 6.02509 123 8.24486V20.5064C123 21.035 122.583 21.4049 122.115 21.4049H101.649H101.545C101.077 21.4049 100.66 21.035 100.66 20.5064V8.24486C100.66 6.02509 101.337 4.01673 102.431 2.53688C103.576 0.951329 105.191 0 107.013 0ZM95.1922 26.3201C94.2549 26.3201 93.3696 26.8486 92.6926 27.7471C92.0157 28.6984 91.547 30.0726 91.547 31.5524V57.2912C91.547 57.7668 91.7032 58.1897 91.9115 58.4539C92.0677 58.6653 92.276 58.8239 92.4843 58.8239H96.1295C96.3378 58.8239 96.5461 58.6653 96.7024 58.4539C96.9107 58.1897 97.0148 57.7668 97.0148 57.2912V35.1992C97.0148 34.7235 97.4314 34.3007 97.9522 34.3007H98.0042H101.545C102.066 34.3007 102.431 34.7235 102.431 35.1992V68.0729C102.431 73.6752 103.16 79.1718 104.514 84.4041C105.867 89.6364 107.846 94.4987 110.45 98.8854V98.9383C110.658 99.2554 110.919 99.5197 111.179 99.6782C111.387 99.7839 111.596 99.8367 111.856 99.8367C112.064 99.8367 112.273 99.7839 112.481 99.6782C112.741 99.5197 113.002 99.2554 113.21 98.9383C115.814 94.5516 117.793 89.6364 119.146 84.4041C120.5 79.2246 121.229 73.6752 121.229 68.0729V26.3201H95.1922ZM91.2866 26.6901C92.276 25.3688 93.63 24.5232 95.1401 24.5232C103.993 24.2589 113.21 24.5232 122.115 24.5232C122.583 24.5232 123 24.8931 123 25.4216V68.0729C123 73.8337 122.271 79.4889 120.865 84.8797C119.459 90.2706 117.428 95.3444 114.72 99.8367C114.356 100.471 113.939 100.894 113.418 101.211C112.898 101.528 112.377 101.687 111.856 101.687C111.283 101.687 110.762 101.528 110.242 101.211C109.773 100.894 109.304 100.471 108.94 99.8367C106.232 95.2915 104.201 90.2178 102.795 84.8797C101.389 79.4889 100.66 73.8337 100.66 68.0729V36.1505H98.8374V57.2912C98.8374 58.1368 98.577 58.9824 98.1084 59.5638C97.6397 60.2509 96.9107 60.6208 96.1295 60.6208H92.4843C91.7032 60.6208 90.9742 60.2509 90.5055 59.5638C90.0368 58.9824 89.7765 58.1368 89.7765 57.2912V31.5524C89.7765 29.6498 90.3493 27.9057 91.2866 26.6901Z" fill="#323232"/>
</svg>
