<svg width="115" height="132" viewBox="0 0 115 132" fill="none" xmlns="http://www.w3.org/2000/svg">
<path d="M95.9215 129.475L111.835 117.559L81.9532 77.2757L66.04 89.2805L95.9215 129.475ZM71.1676 67.4939L78.4169 77.2757L81.5112 74.9636C81.9532 74.6969 82.6605 74.7858 83.0141 75.2304L114.133 117.114C114.487 117.559 114.31 118.181 113.868 118.537L96.3635 131.787C95.8331 132.142 95.2142 132.053 94.8606 131.52L63.7414 89.6362C63.3878 89.1916 63.4762 88.5691 64.0066 88.2134L67.0124 85.9014L60.0283 76.4753C54.2818 79.6766 47.5629 81.5441 40.4904 81.5441C29.3511 81.5441 19.1843 76.92 11.8465 69.5392C4.50875 62.2474 0 52.021 0 40.7276C0 29.523 4.50875 19.2967 11.8465 11.9159C19.1843 4.53517 29.3511 0 40.4904 0C51.718 0 61.8848 4.53517 69.1342 11.9159C76.472 19.2967 81.0691 29.523 81.0691 40.7276C81.0691 50.9539 77.2676 60.291 71.1676 67.4939ZM76.8256 78.5206L69.9299 69.2724C68.7806 70.5174 67.5429 71.6734 66.2168 72.7405C64.8907 73.7187 63.4762 74.6968 61.9732 75.5861L68.6922 84.6564L76.8256 78.5206ZM40.4904 5.42441C50.2151 5.42441 58.9674 9.33711 65.3327 15.7397C71.698 22.1423 75.6763 31.0348 75.6763 40.7276C75.6763 50.5093 71.698 59.3129 65.3327 65.7154C58.9674 72.118 50.2151 76.1196 40.4904 76.1196C30.7656 76.1196 21.9249 72.118 15.5596 65.6265C15.4712 65.5376 15.3828 65.4487 15.3828 65.4487C9.19432 59.0461 5.39282 50.3314 5.39282 40.7276C5.39282 21.253 21.1292 5.42441 40.4904 5.42441ZM37.6613 16.8068C38.015 16.4511 38.6338 16.4511 38.9874 16.7179C38.9874 16.7179 52.0717 27.0331 53.221 28.0113C53.663 28.367 53.7514 28.9895 53.3978 29.4341C53.0441 29.8787 52.4253 29.9677 51.9833 29.612L50.0383 28.1002V39.2158C57.1109 37.5263 64.8907 36.9038 73.3777 37.4373C72.6705 29.612 69.1342 22.498 63.9182 17.2514C57.9065 11.2045 49.6847 7.46968 40.4904 7.46968C23.6046 7.46968 9.72476 20.2749 7.6914 36.637C13.1726 36.1924 17.7698 36.726 22.1901 38.0598C24.2235 38.5934 26.2569 39.3937 28.2902 40.2829L28.2018 28.1002L26.3453 29.7898C25.9032 30.2344 25.196 30.1455 24.8423 29.7009C24.4887 29.3452 24.4887 28.6338 24.9307 28.2781C29.1743 24.4543 33.4178 20.6306 37.6613 16.8068ZM73.5545 39.4826C50.2151 38.0598 31.2076 44.8181 17.5046 64.6483C23.5162 70.4285 31.5613 73.9854 40.4904 73.9854C49.6847 73.9854 57.9065 70.2506 63.9182 64.2926C67.4545 60.7356 70.1951 56.3783 71.7864 51.5764C65.3327 50.9539 59.9399 50.6871 54.105 52.1989C48.0049 53.8884 41.3744 57.7122 32.5337 65.7154C32.0917 66.0711 31.3845 66.0711 31.0308 65.6265C30.6772 65.1819 30.6772 64.5594 31.1192 64.2037C40.2251 55.9337 47.1209 51.9321 53.5746 50.2425C59.8515 48.553 65.5979 48.9087 72.4053 49.5311C73.2009 46.6855 73.5545 43.751 73.5545 40.7276C73.5545 40.3719 73.5545 39.9272 73.5545 39.4826ZM16.0901 63.1366C21.2177 55.7559 27.3177 49.8868 34.3019 45.7074C29.7931 43.2175 25.8148 41.2611 21.6597 40.0162C17.3278 38.7712 12.819 38.3266 7.51459 38.7712C7.51459 39.3937 7.42618 40.1051 7.42618 40.7276C7.42618 49.3533 10.6972 57.2676 16.0901 63.1366ZM35.0091 43.751V35.1253C35.0091 34.5918 35.4512 34.0582 36.07 34.0582H42.1701C42.7889 34.0582 43.231 34.5918 43.231 35.1253V41.35C44.7339 40.8165 46.3252 40.2829 48.0049 39.8383V26.4996L38.3686 18.941L30.3236 26.2328V41.2611C31.8265 41.9725 33.4178 42.7728 35.0091 43.751ZM37.0425 43.9289C38.457 43.3953 39.7831 42.7728 41.1092 42.1504V36.1924H37.0425V43.9289ZM67.7197 13.4276C60.7355 6.40259 51.0992 2.04527 40.4904 2.04527C29.8815 2.04527 20.3336 6.40259 13.3494 13.4276C6.3653 20.4527 2.03336 30.0566 2.03336 40.7276C2.03336 51.3985 6.3653 61.0913 13.3494 68.1164C20.3336 75.1415 29.8815 79.4099 40.4904 79.4099C51.0992 79.4099 60.7355 75.1415 67.7197 68.1164C74.7038 61.0913 78.9474 51.3985 78.9474 40.7276C78.9474 30.0566 74.7038 20.4527 67.7197 13.4276Z" fill="#323232"/>
</svg>
