<svg width="164" height="112" viewBox="0 0 164 112" fill="none" xmlns="http://www.w3.org/2000/svg">
<path d="M99.7829 58.6616C102.937 58.6616 105.849 60.1198 107.984 62.2584C110.265 64.5915 111.721 67.7022 111.721 70.6186C111.721 73.3891 111.09 75.5277 109.974 77.2289C109.003 78.7357 107.645 79.8536 106.092 80.8257C106.528 86.2695 108.712 88.9914 111.284 90.3524C114.002 91.8106 117.253 91.8106 119.389 91.8106H148.36V85.2002C148.36 84.617 148.846 84.1795 149.428 84.1795H153.99C154.572 84.1795 155.057 84.617 155.057 85.2002V91.8106H156.076V80.9715C156.076 80.3883 156.513 79.9508 157.096 79.9508H162.919C163.501 79.9508 163.938 80.3883 163.938 80.9715V110.572C163.938 111.156 163.501 111.593 162.919 111.593H157.096C156.513 111.593 156.076 111.156 156.076 110.572V100.171H155.057V106.83C155.057 107.364 154.572 107.85 153.99 107.85H149.428C148.846 107.85 148.36 107.364 148.36 106.83V100.171H117.205C113.468 100.171 107.305 99.1014 102.889 94.9213C100.026 92.1994 97.9388 88.2138 97.7447 82.4297C95.0756 81.9922 92.6491 80.6313 90.9021 78.6871C89.0095 76.597 87.8448 73.7779 87.8448 70.6186C87.8448 67.4106 89.2036 64.3971 91.3874 62.1612C93.5227 60.0226 96.4829 58.6616 99.7829 58.6616ZM106.48 63.7166C104.733 61.9668 102.355 60.7517 99.7829 60.7517C97.0653 60.7517 94.6388 61.8696 92.8433 63.668C91.0477 65.4664 89.883 67.9453 89.883 70.6186C89.883 73.2433 90.8536 75.5763 92.455 77.3261C94.0565 79.0759 96.3373 80.2425 98.8608 80.4855C99.3947 80.5341 99.8314 80.9715 99.8314 81.5062C99.8314 87.1444 101.724 90.8871 104.296 93.4145C108.227 97.1572 113.808 98.0807 117.205 98.0807H149.428C150.01 98.0807 150.447 98.5667 150.447 99.15V105.76H152.971V99.15C152.971 98.5667 153.407 98.0807 153.99 98.0807H157.096C157.678 98.0807 158.163 98.5667 158.163 99.15V109.503H161.851V82.0409H158.163V92.8799C158.163 93.4632 157.678 93.9006 157.096 93.9006H153.99C153.407 93.9006 152.971 93.4632 152.971 92.8799V86.2209H150.447V92.8799C150.447 93.4632 150.01 93.9006 149.428 93.9006H119.389C117.059 93.9006 113.517 93.9006 110.314 92.1994C107.062 90.4496 104.345 87.0472 103.956 80.2911C103.908 79.9022 104.15 79.5134 104.49 79.319C106.043 78.4927 107.353 77.4719 108.227 76.0624C109.149 74.7014 109.634 72.9516 109.634 70.6186C109.634 68.2369 108.421 65.6608 106.48 63.7166ZM121.184 2.18206L2.82208 65.0289L3.84119 65.9038L29.6101 63.1333L134.578 8.01472L121.184 2.18206ZM0.541222 63.8624L120.65 0.0920292C120.893 -0.00518178 121.233 -0.0537873 121.524 0.0920292L137.393 6.99401C137.587 7.09122 137.781 7.23703 137.878 7.43146C138.121 7.96612 137.927 8.59799 137.441 8.84101L30.4836 65.0776C30.338 65.1262 30.1924 65.1748 30.0468 65.2234L3.59854 68.0425C3.30737 68.0911 3.0162 67.9939 2.77355 67.7508L0.347106 65.5636C0.250048 65.4664 0.201519 65.3692 0.104462 65.272C-0.138183 64.7373 0.0559327 64.1054 0.541222 63.8624ZM131.812 18.2219L47.3716 62.9875L54.651 75.7708L121.912 39.9971C125.358 37.0322 127.687 33.5326 129.288 29.5956C130.647 26.096 131.424 22.3047 131.812 18.2219ZM45.479 61.6266L132.491 15.5C132.637 15.4028 132.831 15.3541 133.025 15.4028C133.608 15.4028 134.044 15.8888 133.996 16.4721C133.705 21.4298 132.88 26.096 131.181 30.3732C129.531 34.6019 126.959 38.4417 123.222 41.6011C123.174 41.6497 123.077 41.7469 122.98 41.7955L54.6995 78.0552C54.2142 78.3468 53.5833 78.1524 53.3407 77.6664L45.0423 63.0361C44.7511 62.5501 44.9452 61.9182 45.479 61.6266ZM42.3246 64.5915L49.4099 77.0831C49.701 77.5692 49.5069 78.201 49.0216 78.4927L41.9364 82.2353C41.4511 82.5269 40.8202 82.3325 40.5776 81.8464L33.5409 69.3062C33.2497 68.8202 33.4438 68.1883 33.9291 67.8967L34.0262 67.8481L40.9173 64.154C41.4026 63.911 42.0335 64.1054 42.3246 64.5915ZM47.0805 77.1803L41.0144 66.4871L35.8703 69.209L41.8879 79.9508L47.0805 77.1803ZM99.7829 65.0776C101.287 65.0776 102.695 65.7094 103.714 66.6815C104.684 67.7022 105.315 69.1118 105.315 70.6186C105.315 72.174 104.684 73.5349 103.714 74.5556C102.695 75.5763 101.287 76.1596 99.7829 76.1596C98.23 76.1596 96.8712 75.5763 95.8521 74.5556C94.8815 73.5349 94.2506 72.174 94.2506 70.6186C94.2506 69.1118 94.8815 67.7022 95.8521 66.6815C96.8712 65.7094 98.23 65.0776 99.7829 65.0776ZM102.209 68.1883C101.578 67.5564 100.753 67.1676 99.7829 67.1676C98.8123 67.1676 97.9388 67.5564 97.3564 68.1883C96.7256 68.8202 96.3373 69.6951 96.3373 70.6186C96.3373 71.5907 96.7256 72.4656 97.3564 73.0975C97.9388 73.6807 98.8123 74.0696 99.7829 74.0696C100.753 74.0696 101.578 73.6807 102.209 73.0975C102.84 72.4656 103.228 71.5907 103.228 70.6186C103.228 69.6951 102.84 68.8202 102.209 68.1883Z" fill="#323232"/>
</svg>
